<?xml version="1.0" encoding="UTF-8" standalone="no"?>
<!-- Created with Inkscape (http://www.inkscape.org/) -->

<svg
   width="136mm"
   height="136mm"
   viewBox="0 0 136 136"
   version="1.1"
   id="svg4744"
   inkscape:version="1.2.1 (9c6d41e4, 2022-07-14)"
   sodipodi:docname="kubero-logo-hat-square-negative.svg"
   inkscape:export-filename="kubero-logo-hat-square-negative.png"
   inkscape:export-xdpi="80"
   inkscape:export-ydpi="80"
   xmlns:inkscape="http://www.inkscape.org/namespaces/inkscape"
   xmlns:sodipodi="http://sodipodi.sourceforge.net/DTD/sodipodi-0.dtd"
   xmlns="http://www.w3.org/2000/svg"
   xmlns:svg="http://www.w3.org/2000/svg">
  <sodipodi:namedview
     id="namedview4746"
     pagecolor="#7473bf"
     bordercolor="#666666"
     borderopacity="1.0"
     inkscape:showpageshadow="2"
     inkscape:pageopacity="1"
     inkscape:pagecheckerboard="0"
     inkscape:deskcolor="#d1d1d1"
     inkscape:document-units="mm"
     showgrid="false"
     inkscape:zoom="0.914906"
     inkscape:cx="360.14629"
     inkscape:cy="362.33231"
     inkscape:window-width="1387"
     inkscape:window-height="1205"
     inkscape:window-x="366"
     inkscape:window-y="178"
     inkscape:window-maximized="0"
     inkscape:current-layer="layer1" />
  <defs
     id="defs4741" />
  <g
     inkscape:label="Ebene 1"
     inkscape:groupmode="layer"
     id="layer1">
    <path
       style="display:inline;fill:#ffffff;fill-opacity:1;stroke-width:1.161;stroke-dasharray:none"
       d="m 96.157565,88.887539 c -2.078917,0.570944 -6.52565,1.148532 -9.98367,1.296794 -7.398975,0.317216 -12.843214,-0.498395 -27.139975,-4.065957 -12.964018,-3.235009 -19.146755,-4.31556 -23.5006,-4.107242 -5.790951,0.277113 -6.162961,2.81403 -0.645157,4.399742 1.094027,0.3144 5.522989,0.741875 9.84213,0.949895 l 7.85297,0.378259 -3.646029,0.727159 c -4.380958,0.873739 -12.937882,1.179523 -15.829665,0.56566 -3.17812,-0.674634 -5.485542,-2.884259 -5.485542,-5.253011 0,-2.53099 0.77414,-3.91157 2.772944,-4.945203 4.334681,-2.241554 12.715059,-1.430264 31.298819,3.029978 15.965836,3.831932 18.207784,4.155817 26.448323,3.820969 5.949203,-0.241752 7.911072,-0.567291 12.360577,-2.051066 6.33899,-2.113888 10.37097,-4.334353 13.64065,-7.512123 2.30653,-2.241701 4.60932,-6.026247 5.96696,-9.268294 0.1294,-0.308969 0.9184,-0.851319 -3.35369,1.007555 -5.66298,2.464045 -12.56255,3.604553 -23.164083,3.200168 C 83.760646,70.685821 78.837396,69.856085 65.17494,66.271659 37.411783,58.987806 24.892815,58.888266 18.734317,65.902413 c -2.261116,2.575265 -2.293341,1.787682 -0.05156,-1.260643 1.153699,-1.568796 2.858622,-2.891667 5.188566,-4.025877 8.584916,-4.179128 21.39977,-3.623246 44.978819,1.951105 7.124108,1.684215 18.282021,3.743701 18.607264,3.434486 0.09161,-0.08717 -4.245801,-7.795904 -9.753158,-17.334052 -2.415843,-4.183967 -2.587045,-4.346452 -4.560251,-4.327611 -1.127593,0.0099 -3.943302,0.359986 -6.257111,0.776027 -9.480928,1.704785 -11.208062,2.720639 -12.962844,7.62443 l -1.101781,3.078969 0.187154,-3.780199 c 0.23753,-4.797658 1.290789,-6.31114 6.046941,-8.689102 6.9964,-3.498047 16.694045,-4.75027 18.99195,-2.452365 2.657818,2.657842 6.606502,11.648085 9.048373,20.601188 l 1.24306,4.557658 2.876061,0.345565 c 9.959891,1.196736 23.269681,-0.678412 26.598541,-3.747356 4.22906,-3.898853 -2.54004,-6.4817 -20.65262,-7.880281 l -9.240072,-0.713454 6.101365,-0.454785 c 7.143167,-0.532447 19.383467,-0.109887 22.291407,0.769729 5.10514,1.544054 7.52353,4.703723 6.16485,8.054448 -0.40206,0.991579 -1.29758,3.792496 -2.26015,6.120676 -2.54659,6.159471 -4.58475,9.898654 -7.89934,13.384651 -0.79606,0.837218 -1.97437,2.122875 -4.89369,3.565239 -6.6171,2.742171 -8.437796,2.796942 -11.268525,3.38668 z M 16.403488,68.720566 c 0,-0.154336 0.12621,-0.280447 0.280462,-0.280447 0.154262,0 0.280465,0.126185 0.280465,0.280447 0,0.154337 -0.12621,0.280472 -0.280465,0.280472 -0.154262,0 -0.280462,-0.126185 -0.280462,-0.280472 z"
       id="path166-5-8"
       sodipodi:nodetypes="cssssscsssssssssssssssssscsscsssscssscscsssccsssss"
       inkscape:label="hat" />
  </g>
</svg>
