<?xml version="1.0" encoding="UTF-8" standalone="no"?>
<!-- Created with Inkscape (http://www.inkscape.org/) -->

<svg
   width="136mm"
   height="136mm"
   viewBox="0 0 136 136"
   version="1.1"
   id="svg4744"
   inkscape:version="1.2.1 (9c6d41e4, 2022-07-14)"
   sodipodi:docname="kubero-logo-hat-square-bold.svg"
   inkscape:export-filename="kubero-logo-hat-square-bold.png"
   inkscape:export-xdpi="80"
   inkscape:export-ydpi="80"
   xmlns:inkscape="http://www.inkscape.org/namespaces/inkscape"
   xmlns:sodipodi="http://sodipodi.sourceforge.net/DTD/sodipodi-0.dtd"
   xmlns="http://www.w3.org/2000/svg"
   xmlns:svg="http://www.w3.org/2000/svg">
  <sodipodi:namedview
     id="namedview4746"
     pagecolor="#ffffff"
     bordercolor="#666666"
     borderopacity="1.0"
     inkscape:showpageshadow="2"
     inkscape:pageopacity="0"
     inkscape:pagecheckerboard="0"
     inkscape:deskcolor="#d1d1d1"
     inkscape:document-units="mm"
     showgrid="false"
     inkscape:zoom="1.488"
     inkscape:cx="189.85215"
     inkscape:cy="225.80645"
     inkscape:window-width="1387"
     inkscape:window-height="1092"
     inkscape:window-x="366"
     inkscape:window-y="292"
     inkscape:window-maximized="0"
     inkscape:current-layer="layer1" />
  <defs
     id="defs4741" />
  <g
     inkscape:label="Ebene 1"
     inkscape:groupmode="layer"
     id="layer1">
    <path
       style="display:inline;fill:#7473bf;fill-opacity:1;stroke:#7473bf;stroke-width:3.9752;stroke-linecap:round;stroke-linejoin:round;stroke-miterlimit:3.2;stroke-dasharray:none;stroke-opacity:1"
       d="m 98.508713,96.030362 c -2.44427,0.769224 -7.672482,1.547379 -11.738222,1.747127 -8.699286,0.427373 -15.100307,-0.67147 -31.909612,-5.477911 -15.242342,-4.358408 -22.511646,-5.814193 -27.630645,-5.533535 -6.808666,0.373345 -7.246054,3.791238 -0.758539,5.927602 1.286294,0.423589 6.49361,0.999506 11.571807,1.27976 l 9.233067,0.509622 -4.28679,0.979672 c -5.150876,1.177159 -15.211612,1.589124 -18.611603,0.762096 -3.73665,-0.908915 -6.449584,-3.885866 -6.449584,-7.077191 0,-3.409908 0.910189,-5.269911 3.260268,-6.662487 5.096466,-3.019963 14.94963,-1.926942 36.799339,4.082177 18.771708,5.162619 21.40766,5.598972 31.09641,5.147848 6.994727,-0.325703 9.30138,-0.76429 14.532861,-2.763324 7.45301,-2.847962 12.19358,-5.839513 16.03789,-10.120804 2.71187,-3.02016 5.41936,-8.118938 7.0156,-12.486829 0.15214,-0.416262 1.0798,-1.146949 -3.94308,1.357442 -6.6582,3.319717 -14.77032,4.856281 -27.234991,4.311468 C 83.933133,71.507871 78.14466,70.389997 62.081134,65.560834 29.438821,55.747569 14.719743,55.613463 7.478938,65.063362 c -2.6584894,3.46956 -2.6963783,2.408477 -0.060622,-1.698417 1.3564524,-2.113581 3.361002,-3.895835 6.100415,-5.423915 10.093647,-5.630383 25.160611,-4.881464 52.883493,2.628652 8.376114,2.269079 21.494943,5.043748 21.877344,4.627154 0.107706,-0.117441 -4.991967,-10.503131 -11.467199,-23.353523 -2.840408,-5.636903 -3.041698,-5.855814 -5.36168,-5.83043 -1.325758,0.01335 -4.636307,0.484996 -7.356748,1.045513 C 52.946814,39.35519 50.91615,40.723812 48.85298,47.330507 l -1.295411,4.14818 0.220044,-5.092921 c 0.279274,-6.463706 1.517634,-8.502765 7.109643,-11.706504 8.225963,-4.712788 19.627893,-6.399862 22.329636,-3.30398 3.12491,3.580812 7.767543,15.693031 10.638554,27.755214 l 1.461517,6.140364 3.381507,0.465567 c 11.71027,1.612317 27.35915,-0.914 31.27303,-5.048674 4.97228,-5.25278 -2.98643,-8.732554 -24.282153,-10.61681 L 88.825398,49.109734 95.99903,48.497018 c 8.39853,-0.717346 22.78996,-0.148046 26.20895,1.037028 6.00234,2.080246 8.84574,6.33715 7.24827,10.851458 -0.47271,1.335917 -1.52562,5.109489 -2.65735,8.24616 -2.99413,8.298425 -5.39048,13.336088 -9.28759,18.032642 -0.93596,1.127952 -2.32134,2.860071 -5.75371,4.803314 -7.78,3.694419 -9.92068,3.768211 -13.248887,4.562742 z"
       id="path166-5-8"
       sodipodi:nodetypes="cssssscsssssssssssssssssscsscsssscssscscssscc"
       inkscape:label="hat" />
  </g>
</svg>
