<?xml version="1.0" encoding="UTF-8" standalone="no"?>
<!-- Created with Inkscape (http://www.inkscape.org/) -->

<svg
   width="136mm"
   height="70mm"
   viewBox="0 0 136 70"
   version="1.1"
   id="svg4744"
   inkscape:version="1.2.1 (9c6d41e4, 2022-07-14)"
   sodipodi:docname="kubero-logo-hat.svg"
   xmlns:inkscape="http://www.inkscape.org/namespaces/inkscape"
   xmlns:sodipodi="http://sodipodi.sourceforge.net/DTD/sodipodi-0.dtd"
   xmlns="http://www.w3.org/2000/svg"
   xmlns:svg="http://www.w3.org/2000/svg">
  <sodipodi:namedview
     id="namedview4746"
     pagecolor="#ffffff"
     bordercolor="#666666"
     borderopacity="1.0"
     inkscape:showpageshadow="2"
     inkscape:pageopacity="0.0"
     inkscape:pagecheckerboard="0"
     inkscape:deskcolor="#d1d1d1"
     inkscape:document-units="mm"
     showgrid="false"
     inkscape:zoom="0.914906"
     inkscape:cx="374.9019"
     inkscape:cy="362.3323"
     inkscape:window-width="1387"
     inkscape:window-height="1205"
     inkscape:window-x="444"
     inkscape:window-y="437"
     inkscape:window-maximized="0"
     inkscape:current-layer="layer1" />
  <defs
     id="defs4741" />
  <g
     inkscape:label="Ebene 1"
     inkscape:groupmode="layer"
     id="layer1">
    <path
       style="display:inline;fill:#7473bf;fill-opacity:1;stroke-width:0.679746"
       d="M 98.881123,62.572292 C 96.361834,63.264177 90.973169,63.964113 86.782652,64.14378 77.816385,64.528191 71.218917,63.539812 53.893737,59.21655 38.183608,55.296283 30.691209,53.986844 25.415109,54.239288 c -7.017623,0.335813 -7.468434,3.410114 -0.781818,5.33172 1.32577,0.380999 6.692899,0.899023 11.926945,1.151107 l 9.51643,0.458385 -4.418352,0.881189 c -5.308956,1.05882 -15.678456,1.429377 -19.182793,0.685482 -3.851326,-0.817539 -6.64752,-3.495219 -6.64752,-6.365734 0,-3.067118 0.938123,-4.74014 3.360325,-5.992723 5.252877,-2.716372 15.408433,-1.73323 37.928709,3.671805 19.347808,4.643633 22.064658,5.036125 32.050754,4.630348 7.209397,-0.292962 9.586844,-0.687458 14.978861,-2.485535 7.68175,-2.561663 12.56781,-5.252479 16.53009,-9.103382 2.79511,-2.716551 5.58569,-7.30276 7.23091,-11.231556 0.15681,-0.374416 1.11295,-1.03165 -4.06408,1.220981 -6.86254,2.985993 -15.22362,4.368089 -28.07083,3.878045 C 83.858215,40.514985 77.892095,39.50949 61.335582,35.16579 27.691478,26.339031 12.520673,26.218406 5.0576476,34.718328 2.3175689,37.8391 2.2785174,36.884687 4.995165,33.190649 6.3932467,31.289542 8.4593164,29.686453 11.282801,28.311988 21.686222,23.247614 37.21559,23.921246 65.789284,30.676387 74.422461,32.717362 87.943905,35.2131 88.338042,34.838385 88.449057,34.732746 83.192872,25.39111 76.518916,13.832538 73.591336,8.7622997 73.383869,8.5653961 70.992687,8.5882284 69.626242,8.6001982 66.214093,9.0244688 63.410161,9.5286378 51.92093,11.59454 49.827944,12.825577 47.701454,18.768117 l -1.335166,3.731173 0.226798,-4.580942 c 0.287845,-5.813924 1.564211,-7.648 7.327838,-10.5296756 C 62.39934,3.1496485 74.151195,1.6321738 76.935855,4.416834 80.156666,7.6376747 84.941783,18.532281 87.900904,29.38188 l 1.506372,5.523087 3.485284,0.418764 c 12.06965,1.450235 28.19879,-0.822117 32.23279,-4.541142 5.12489,-4.724729 -3.07809,-7.854689 -25.02737,-9.549526 l -11.197356,-0.864581 7.39379,-0.551121 c 8.656276,-0.645233 23.489376,-0.133164 27.013296,0.932778 6.18654,1.871124 9.1172,5.700092 7.47072,9.760586 -0.48722,1.20162 -1.57244,4.595844 -2.7389,7.417192 -3.08603,7.464204 -5.55592,11.995441 -9.57263,16.219862 -0.96468,1.014562 -2.39259,2.572554 -5.9303,4.320448 -8.01877,3.323033 -10.22513,3.389406 -13.655477,4.104065 z M 2.2330889,38.133439 c 0,-0.187029 0.1529444,-0.339853 0.3398712,-0.339853 0.1869388,0 0.3398742,0.152914 0.3398742,0.339853 0,0.187029 -0.1529445,0.339883 -0.3398742,0.339883 -0.1869387,0 -0.3398712,-0.152915 -0.3398712,-0.339883 z"
       id="path166-5-8"
       sodipodi:nodetypes="cssssscsssssssssssssssssscsscsssscssscscsssccsssss"
       inkscape:label="hat" />
  </g>
</svg>
