<?xml version="1.0" encoding="UTF-8" standalone="no"?>
<!-- Created with Inkscape (http://www.inkscape.org/) -->

<svg
   width="210mm"
   height="36mm"
   viewBox="0 0 210 36"
   version="1.1"
   id="svg1257"
   inkscape:version="1.2.1 (9c6d41e4, 2022-07-14)"
   sodipodi:docname="kubero-logo-horizontal.svg"
   inkscape:export-filename="kubero-logo-horizontal.png"
   inkscape:export-xdpi="80"
   inkscape:export-ydpi="80"
   xmlns:inkscape="http://www.inkscape.org/namespaces/inkscape"
   xmlns:sodipodi="http://sodipodi.sourceforge.net/DTD/sodipodi-0.dtd"
   xmlns="http://www.w3.org/2000/svg"
   xmlns:svg="http://www.w3.org/2000/svg">
  <sodipodi:namedview
     id="namedview1259"
     pagecolor="#ffffff"
     bordercolor="#666666"
     borderopacity="1.0"
     inkscape:showpageshadow="2"
     inkscape:pageopacity="0.0"
     inkscape:pagecheckerboard="0"
     inkscape:deskcolor="#d1d1d1"
     inkscape:document-units="mm"
     showgrid="false"
     inkscape:zoom="0.914906"
     inkscape:cx="128.975"
     inkscape:cy="510.98145"
     inkscape:window-width="1793"
     inkscape:window-height="1205"
     inkscape:window-x="0"
     inkscape:window-y="108"
     inkscape:window-maximized="0"
     inkscape:current-layer="layer1" />
  <defs
     id="defs1254" />
  <g
     inkscape:label="Ebene 1"
     inkscape:groupmode="layer"
     id="layer1">
    <g
       aria-label="
Kubero"
       transform="matrix(1.4714997,0,0,1.2648273,-63.587604,-302.76234)"
       id="text317-6-5"
       style="font-size:15.5223px;line-height:2.45;white-space:pre;inline-size:124.631;display:inline;fill:#48479b;stroke-width:0.264581"
       inkscape:label="kubero">
      <path
         d="m 107.82354,246.06386 0.81856,1.14447 q 0.16674,0.28801 0.16674,0.65939 h -0.16674 q 0.16674,0.31833 0.16674,0.49265 0,2.38746 -3.9412,5.73749 v 0.15917 q 1.21267,2.75884 3.28181,5.24484 v 1.47795 q 0,1.31879 -0.6594,2.12977 0,0.65939 -1.96302,1.47795 v 0.16674 q -1.9706,0 -1.9706,-0.82613 -2.81949,-5.03262 -3.766891,-5.89666 h -0.325908 q 0,0.28801 -1.31121,0.9853 0,0.48508 -0.166743,0.48508 l 0.166743,0.33348 q 0,2.01608 -1.477953,3.11507 -0.727608,0.49265 -1.477953,0.49265 -1.061095,-0.33348 -1.470374,-0.33348 v -0.49265 l 0.159164,-0.32591 q -0.447176,0 -1.470374,-3.60772 h -0.166744 q 0,-0.36381 0.166744,-0.65182 -0.166744,-0.65939 -0.659395,-0.65939 v -0.65182 q 0.20464,-0.26527 0.492651,-1.31121 l -0.166743,-0.33348 v -2.28894 q 0.219798,-3.94121 0.659394,-3.94121 0.447176,0 1.637118,-0.97772 1.690172,-0.9853 2.129769,-0.9853 h 0.818558 q 0.826138,0 0.826138,2.45567 v 0.6594 q 0,0.65181 -0.659394,2.12977 0.166743,0.31833 0.166743,0.49265 2.084293,-1.56133 2.78158,-2.29651 2.29652,-1.75839 2.29652,-2.62242 0.3259,0 3.77446,-1.47796 1.16721,-0.15916 1.31121,-0.15916 z"
         style="font-family:shash;-inkscape-font-specification:shash"
         id="path2522" />
      <path
         d="m 115.60743,246.38977 q 1.31121,0 1.31121,2.45567 0,2.03882 -0.9853,3.11507 v 0.82614 q 0,1.34153 3.11507,2.28894 h 0.65939 q 0.49265,-0.15917 0.49265,-0.97773 v -0.33348 q 0,-0.54571 -0.16674,-0.81856 l 0.16674,-0.98531 v -0.97772 q 2.25104,-1.97818 4.0928,-2.13735 1.47795,0 1.47795,1.80386 v 5.57833 q 0,0.37138 0.16674,0.65182 0,0.16674 -0.16674,0.16674 l 0.16674,0.81856 v 1.47795 q 0,1.67502 -1.47795,3.27424 h -0.16674 l -0.48507,-0.32591 -0.16675,0.32591 q -1.79628,0 -2.12977,-0.97773 -0.33348,0 -0.33348,-0.16674 -1.15963,0.65939 -2.94833,0.65939 h -0.49265 q -2.25862,0 -4.42628,-1.64469 -1.6447,-0.78824 -3.44098,-5.89666 0.37896,-5.57832 1.14447,-5.57832 3.50161,-2.62242 4.59302,-2.62242 z"
         style="font-family:shash;-inkscape-font-specification:shash"
         id="path2524" />
      <path
         d="m 135.8516,254.91642 h -0.0606 q -0.4775,-0.34864 -1.00046,-0.3638 -0.4017,-0.0606 -0.75793,0.144 -0.35622,0.19706 -0.3638,0.5836 0,0.11369 -0.0606,0.32591 -0.0606,0.21222 -0.0606,0.34107 0.0985,0.79582 0.54571,1.09141 0.0985,0.0606 0.28801,0.29559 0.19706,0.22738 0.37896,0.40928 0.1819,0.17432 0.30317,0.17432 0.27285,0 0.44718,-0.144 0.1819,-0.15159 0.25011,-0.33349 0.0758,-0.1819 0.16674,-0.41686 0.0985,-0.23495 0.19706,-0.34864 l -0.12126,-0.8792 -0.0606,-0.60634 -0.091,-0.30317 z m -4.10037,-13.77149 q 0.16674,0 0.49265,0.65181 h 0.81856 q 0.33348,0.4017 0.33348,0.6594 0,2.16766 -1.3112,3.60772 -0.16675,0.28801 -0.16675,0.65181 0.32591,1.31879 0.32591,1.6447 v 0.65182 q 3.91089,0.26527 7.54135,2.46325 2.46326,2.53147 2.46326,4.75219 v 0.81856 q -0.20464,1.92513 -1.47796,3.60772 -0.21222,0 -0.81856,0.81856 -1.69017,0.9853 -3.44097,0.9853 h -3.28182 q -0.32591,-0.32591 -1.63712,-0.81856 -0.49265,-0.29559 -0.65939,-1.47795 -0.31833,-0.16674 -0.49265,-0.16674 -0.31833,0.16674 -0.49265,0.16674 -0.70487,-0.50023 -1.80386,-4.59302 l -0.65182,-0.15917 v -0.49265 q 0,-0.16674 0.16674,-0.16674 -0.33348,-0.37896 -0.65939,-2.78917 0.32591,-1.53858 0.32591,-2.45567 l -0.15917,-0.6594 q 0.49265,-0.86403 0.81856,-4.09279 -0.32591,0 -0.32591,-0.33349 0.53813,-2.12977 0.97773,-2.12977 2.78916,-0.44717 2.78916,-0.81855 0.0531,-0.32591 0.32591,-0.32591 z"
         style="font-family:shash;-inkscape-font-specification:shash"
         id="path2526" />
      <path
         d="m 151.01768,244.75265 q 2.79674,0 4.25954,2.78158 0.71244,0.81098 2.29651,1.97061 0.15916,0.28801 0.15916,0.65939 v 1.31121 q -0.32591,0.81856 -0.65181,0.81856 l 0.16674,0.32591 v 0.16674 q -0.45476,1.28847 -1.6447,2.12977 -0.9853,0.68971 -0.9853,0.9853 h -1.63712 l -0.3259,-0.16674 -0.16675,0.32591 v 0.49265 h 0.6594 q 0.59118,0 1.31121,0.65939 1.22783,-0.33348 1.47037,-0.33348 0.49265,0.84129 0.49265,1.64469 v 0.32591 q 0,2.40262 -2.62242,4.10037 -0.4017,0.11369 -2.62242,0.32591 -2.07671,0 -6.72279,-5.24484 -0.65182,-1.12931 -1.14447,-6.07098 0.73519,-2.52389 2.62242,-4.91135 0.37139,-0.61392 1.47796,-1.15204 3.60772,-0.93225 3.60772,-1.14447 z m -2.46326,4.75219 q 0.32591,0.65939 0.32591,1.14446 h -0.15916 q 0.3259,1.80387 1.80386,1.80387 l 0.49265,-0.81856 q -0.64424,-1.0611 -1.80386,-1.14447 0,-0.17432 -0.16675,-0.49265 0.16675,-0.28801 0.16675,-0.6594 h -0.33349 z"
         style="font-family:shash;-inkscape-font-specification:shash"
         id="path2528" />
      <path
         d="m 163.05353,245.2453 h 1.47795 q 0.25769,0 0.65939,0.65182 v 1.47795 h 2.12977 l 0.32591,-0.16674 v 0.49265 l 0.32591,-0.16675 q 1.80386,0.28801 1.80386,0.6594 l -0.32591,0.65181 q 0.65182,0 0.65182,1.15205 v 0.16674 q -0.94741,1.79628 -2.62242,1.79628 -1.01562,0 -2.28894,1.6447 v 0.15917 q 0,0.40927 0.48508,1.9706 v 0.9853 h -0.32591 l 0.16674,0.81856 v 0.16674 q -0.81856,2.28894 -1.31121,2.28894 -1.0232,0.9853 -1.80386,0.9853 h -0.32591 v -0.49265 h 0.32591 V 260.328 h -0.16674 q -1.12173,0.15917 -1.80386,0.15917 -0.74277,0 -1.63712,-8.35991 v -0.16675 q 0,-0.15916 0.16674,-0.15916 0,-0.17432 -0.16674,-0.49265 0,-5.08568 1.14446,-5.08568 0.85646,-0.45475 3.11508,-0.97772 z"
         style="font-family:shash;-inkscape-font-specification:shash"
         id="path2530" />
      <path
         d="m 179.68997,244.75265 q 2.50873,0 3.60773,3.11507 v 0.65182 l -0.16675,1.47795 q 1.05352,0.37138 1.47796,1.31121 v 0.49265 l -0.16675,0.32591 h 0.32591 v 0.81856 h -0.32591 v 0.65939 q -0.88677,3.97911 -2.78916,5.57075 -0.38654,0.56086 -1.14447,0.81856 -0.69729,0.81856 -1.80386,0.81856 h -0.49265 q -0.37138,0 -0.65182,-0.15917 -0.28801,0.15917 -0.65939,0.15917 -1.97818,-0.23496 -4.25954,-2.28894 0,-0.52297 -1.47795,-4.26711 0,-2.97865 2.45568,-7.20787 0,-0.55328 0.9853,-0.82614 2.41778,-1.14446 5.08567,-1.47037 z m -2.62242,5.89665 -0.81856,0.82614 v 1.14447 q 1.16721,2.90285 2.62242,3.76689 h 0.65182 q 1.80386,-1.78113 1.80386,-3.76689 -0.16674,0 -0.16674,-0.16674 l -0.32591,0.16674 q -1.31121,-0.2577 -1.31121,-0.81856 -0.65182,0 -0.65182,-0.81856 -0.23495,-0.16674 -1.80386,-0.33349 z"
         style="font-family:shash;-inkscape-font-specification:shash"
         id="path2532" />
    </g>
    <path
       style="display:inline;fill:#7473bf;fill-opacity:1;stroke-width:0.340121"
       d="m 50.303107,31.075679 c -1.260562,0.346194 -3.956858,0.696417 -6.053642,0.786316 C 39.763067,32.05434 36.46193,31.559792 27.793029,29.396587 19.932244,27.435025 16.18332,26.779829 13.543354,26.906142 c -3.511376,0.168029 -3.7369466,1.706299 -0.391205,2.667802 0.663372,0.190638 3.348887,0.449839 5.967815,0.575973 l 4.76168,0.229359 -2.210774,0.440915 C 19.014448,31.349987 13.825927,31.5354 12.072478,31.163182 10.145415,30.754115 8.7463066,29.4143 8.7463066,27.977997 c 0,-1.534676 0.4693941,-2.371796 1.6813834,-2.998543 2.628346,-1.359175 7.709824,-0.867247 18.97816,1.837239 9.680938,2.323508 11.040368,2.519895 16.037053,2.31686 3.607308,-0.146588 4.796912,-0.343979 7.494885,-1.243673 3.843675,-1.281764 6.28848,-2.628152 8.271064,-4.555006 1.398554,-1.359265 2.794878,-3.65404 3.618089,-5.619868 0.07846,-0.187344 0.556883,-0.5162 -2.033522,0.610935 -3.43377,1.494084 -7.617351,2.185635 -14.045637,1.940435 -5.9616,-0.227383 -8.946834,-0.730497 -17.231118,-2.903928 C 14.682363,12.945853 7.0914404,12.885497 3.3572044,17.138554 c -1.3710333,1.561523 -1.3905742,1.083968 -0.0313,-0.764397 0.6995478,-0.951245 1.7333408,-1.753373 3.1461051,-2.441106 5.2055005,-2.534031 12.9758465,-2.19697 27.2730925,1.18306 4.319732,1.021231 11.085377,2.27001 11.28259,2.082515 0.05555,-0.05285 -2.574459,-4.727077 -5.913868,-10.5105729 -1.464855,-2.5369657 -1.568665,-2.6354893 -2.765126,-2.6240647 -0.683721,0.00602 -2.391037,0.218279 -3.794024,0.4705473 -5.748803,1.0337031 -6.796057,1.6496697 -7.860066,4.6231036 L 24.026535,11.024585 24.140031,8.7324457 C 24.284073,5.8233666 24.922709,4.9056613 27.806618,3.4637735 32.04891,1.3427177 37.929116,0.58342798 39.32246,1.9767719 c 1.611579,1.6115932 4.00588,7.0628642 5.486518,12.4916141 l 0.753735,2.763555 1.743896,0.209535 c 6.039237,0.725645 14.109675,-0.411358 16.128135,-2.272224 2.564321,-2.364086 -1.540156,-3.930206 -12.522788,-4.778242 L 45.309187,9.9584048 49.00879,9.6826443 c 4.331291,-0.3228522 11.753241,-0.066629 13.516483,0.4667287 3.09551,0.936243 4.561924,2.852121 3.738084,4.883847 -0.243792,0.601248 -0.786795,2.299596 -1.37045,3.711297 -1.544139,3.73482 -2.77998,6.002089 -4.789815,8.115838 -0.482675,0.50765 -1.19715,1.287214 -2.967295,2.161796 -4.012303,1.662728 -5.116291,1.695938 -6.83271,2.053528 z M 1.9439013,18.847353 c 0,-0.09358 0.076519,-0.17005 0.1700505,-0.17005 0.093581,0 0.1700658,0.07651 0.1700658,0.17005 0,0.09358 -0.076519,0.170065 -0.1700658,0.170065 -0.093581,0 -0.1700505,-0.07652 -0.1700505,-0.170065 z"
       id="path166-5-8"
       sodipodi:nodetypes="cssssscsssssssssssssssssscsscsssscssscscsssccsssss"
       inkscape:label="hat" />
  </g>
</svg>
