<?xml version="1.0"?>
<svg xmlns="http://www.w3.org/2000/svg" width="24" height="24" viewBox="0 0 24 24">
    <path style="text-indent:0;text-align:start;line-height:normal;text-transform:none;block-progression:tb;-inkscape-font-specification:Bitstream Vera Sans" d="M 16.84375 0.03125 C 16.29375 0.03125 15.7625 0.2375 15.3125 0.6875 L 11.90625 4.09375 L 10.90625 3.09375 L 9.5 4.5 L 11.8125 6.8125 L 9.09375 9.5 L 10.5 10.90625 L 13.1875 8.1875 L 15.8125 10.8125 L 13.09375 13.5 L 14.5 14.90625 L 17.1875 12.1875 L 19.5 14.5 L 20.90625 13.09375 L 19.90625 12.09375 L 23.3125 8.6875 C 24.2125 7.7875 24.2125 6.49375 23.3125 5.59375 L 21.5625 3.84375 L 23.90625 1.5 L 22.5 0.09375 L 20.15625 2.4375 L 18.40625 0.6875 C 17.95625 0.2375 17.39375 0.03125 16.84375 0.03125 z M 4.5 9.5 L 3.09375 10.90625 L 4.09375 11.90625 L 0.6875 15.3125 C -0.2125 16.2125 -0.2125 17.50625 0.6875 18.40625 L 2.4375 20.15625 L 0.09375 22.5 L 1.5 23.90625 L 3.84375 21.5625 L 5.59375 23.3125 C 6.49375 24.2125 7.7875 24.2125 8.6875 23.3125 L 12.09375 19.90625 L 13.09375 20.90625 L 14.5 19.5 L 4.5 9.5 z"/>
</svg>
