<svg height='300px' width='300px'  fill="#000000" xmlns="http://www.w3.org/2000/svg" xmlns:xlink="http://www.w3.org/1999/xlink" version="1.1" x="0px" y="0px" viewBox="0 0 260.3 277.3" style="enable-background:new 0 0 260.3 277.3;" xml:space="preserve"><style type="text/css">
	.st0{fill:none;}
	.st1{fill:#000000;stroke:#000000;stroke-width:2;stroke-miterlimit:10;}
	.st2{fill:none;stroke:#000000;stroke-width:3;stroke-miterlimit:10;}
	.st3{fill:#000000;}
	.st4{fill:#000000;}
</style><g><path d="M155.6,109.1c-7-7.1-19-6.7-26.7,0.9c-7.7,7.6-8.3,19.6-1.3,26.7c3.4,3.4,7.9,5.1,12.5,5.1c3.9,0,7.9-1.2,11.3-3.6   c-0.6-0.8-1.3-1.6-1.8-2.4c-2.7,1.8-5.7,2.8-8.9,3c-4.2,0.2-8-1.4-10.9-4.2c-2.8-2.9-4.2-6.7-4-10.9s2.1-8.2,5.2-11.3   c3.1-3.1,7.2-4.8,11.4-5h0.5c2.1-0.1,4,0.3,5.7,1c1.8,0.7,3.3,1.8,4.7,3.2c2.8,2.9,4.2,6.7,4,10.9c0,0.1,0,0.2,0,0.3   c0.4,0.2,0.9,0.4,1.3,0.6c0.6,0.2,1.1,0.4,1.7,0.5C161,118.5,159.5,113.1,155.6,109.1z"></path><path d="M156.5,133.2c1.2-1.7,2.2-3.5,2.9-5.4c-0.9-0.5-1.9-1-2.8-1.5c-0.6,1.9-1.6,3.8-2.8,5.5   C154.7,132.3,155.6,132.8,156.5,133.2z"></path><path d="M171.1,150.5c2.2-2.4,4.2-4.8,6.2-7.2c-0.8-0.7-1.6-1.3-2.3-2c-1.9,2.4-4,4.7-6,7C169.7,149,170.4,149.8,171.1,150.5z"></path><path d="M207.5,57.9l-0.1-0.4l-1.3-1.3h-0.6c-8.3-0.7-72.3-3.4-120.3,65.4c-1.6-1.1-5-3-10.5-2.5c-10.2,0.9-27.8,10.3-53.3,49.4   l2.3,1.9c10.1-9.4,38.2-33.3,47.1-30.9c0.7,0.2,1.6,0.6,2.1,2.2c-3.8,7-7.5,14.6-10.9,22.8l-0.4,0.7L76,179.8l-7.1,6.7l5.4,5.5   l7.1-6.7l13.5,13.8l0.8,0.8l0.9-0.2c8.2-3.3,15.8-7.3,22.9-10.3c0.1-0.1,0.1-0.2,0.2-0.3c1.5,0.5,1.9,1.4,2.1,2.1   c2.3,9-22.1,36.6-31.7,46.5L92,240c39.5-24.9,49.2-42.2,50.3-52.4c0.6-5.5-1.2-9.1-2.3-10.6c10.9-7.3,20-15.1,27.7-22.9   c-0.6-0.6-1.2-1.3-1.8-1.9c-0.1-0.1-0.2-0.2-0.4-0.3c-5.8,6-12.1,11.5-18.7,16.5c-11,8.3-22.9,15.4-35.2,21.4l-3-3   c-0.7,0.7-1.5,1.4-2.3,2.1l2.3,2.3c-3.9,1.8-7.9,3.5-12.2,5.2l-13-13.2l8.9-8.7l6.8,6.8c0.6-0.8,1.3-1.6,1.9-2.4l-6.5-6.5   l21.2-20.9l-5.4-5.5l-21.2,20.9c0,0-17.1-17.4-17.1-17.4c-0.5-0.8,3.8-7.2,4.3-8.2c1.6-2.8,3.2-5.6,4.9-8.3c3.4-5.5,7-10.8,10.9-16   c7.7-10.1,16.4-19.5,26.3-27.6c4.9-4,10.3-7.6,15.7-11c2.8-1.7,5.6-3.3,8.5-5c1.8-1,7.3-4.3,7.6-3.6c0,0,2.6,2.8,3.3,3.6   c1.2,1.4,2.5,2.7,3.8,4c2.5,2.6,5,5.1,7.5,7.6c5,5,10.2,9.9,15.2,14.9c0.1,0.1,0.2,0.2,0.3,0.3c1.1,1,2.1,2.1,3.2,3.1   c3,3.1,6,6.1,9,9.2c0.9,0.9-6.5,12.6-7.3,13.9c-1.9,3.1-3.9,6.1-6,9.1c0.9,0.5,1.7,1.1,2.6,1.7C208.8,100.2,207.9,64,207.5,57.9z    M137.5,178.9c0.7,0.9,2.3,3.8,1.7,8.7c-1,8.6-8.8,22.9-38.7,43.4c10.5-11.8,26.4-31.6,24.2-40.4c-0.3-1.3-1-2.3-1.9-3   C128,184.8,132.9,181.9,137.5,178.9z M91.1,169l19.1-18.8l1.2,1.3l-19.1,18.8l-2.1,2.1l-8.9,8.7l-1,1.1l-1.1,1l-5,4.6l-1.2-1.2   l5-4.6l1.1-1.1l1-1l8.9-8.8L91.1,169z M86.9,168.9l-8.9,8.7l-12.9-13.1c1.8-4.2,3.6-8.3,5.5-12.2L86.9,168.9z M74.5,138.4   c-0.7-0.9-1.7-1.6-3-1.9c-8.8-2.4-28.8,13.2-40.8,23.4c21-29.5,35.4-37,44.1-37.9c4.8-0.5,7.6,1.1,8.7,1.9   C80.4,128.4,77.4,133.3,74.5,138.4z M194,110l-40.7-41.4l-0.1-0.1c24.8-10.3,45.3-9.9,51.1-9.5C204.7,64.8,204.7,85.3,194,110z"></path><path d="M104.6,182.7c-0.3,0.3-0.6,0.6-0.8,0.9c-0.4,0.5-0.8,1-1.2,1.5l1.6,1.7c0.8-0.7,1.6-1.4,2.3-2.1L104.6,182.7z"></path><path d="M29.4,204.8c8-7.8,16.3-15.1,24.3-22.9c1.4-1.3-0.7-3.5-2.1-2.1c-8,7.8-16.3,15.1-24.3,22.9C25.9,204,28,206.1,29.4,204.8z   "></path><path d="M63.6,190.8c-17.3,16.8-34.5,33.6-51.8,50.4c-1.4,1.3,0.7,3.5,2.1,2.1c17.3-16.8,34.5-33.6,51.8-50.4   C67.1,191.6,65,189.4,63.6,190.8z"></path><path d="M75.6,203.8c-11.3,11-22.8,21.8-34.2,32.8c-1.4,1.3,0.7,3.5,2.1,2.1c11.3-11,22.8-21.8,34.2-32.8   C79.1,204.6,77,202.4,75.6,203.8z"></path></g><path d="M74.8,74.2l0.8,1.5c0,0.1,0.1,0.1,0.2,0.2l1.5,0.8c0.3,0.2,0.3,0.6,0,0.8l-1.5,0.8c-0.1,0-0.1,0.1-0.2,0.2l-0.8,1.5  c-0.2,0.3-0.6,0.3-0.8,0l-0.8-1.5c0-0.1-0.1-0.1-0.2-0.2l-1.5-0.8c-0.3-0.2-0.3-0.6,0-0.8l1.5-0.8c0.1,0,0.1-0.1,0.2-0.2l0.8-1.5  C74.2,73.8,74.6,73.8,74.8,74.2z"></path><path d="M145.1,29.5l0.8,1.5c0,0.1,0.1,0.1,0.2,0.2l1.5,0.8c0.3,0.2,0.3,0.6,0,0.8l-1.5,0.8c-0.1,0-0.1,0.1-0.2,0.2l-0.8,1.5  c-0.2,0.3-0.6,0.3-0.8,0l-0.8-1.5c0-0.1-0.1-0.1-0.2-0.2l-1.5-0.8c-0.3-0.2-0.3-0.6,0-0.8l1.5-0.8c0.1,0,0.1-0.1,0.2-0.2l0.8-1.5  C144.4,29.2,144.9,29.2,145.1,29.5z"></path><path d="M178.3,183.9l0.6,1.1c0,0.1,0.1,0.1,0.1,0.1l1.1,0.6c0.2,0.1,0.2,0.5,0,0.6l-1.1,0.6c-0.1,0-0.1,0.1-0.1,0.1l-0.6,1.1  c-0.1,0.2-0.5,0.2-0.6,0l-0.6-1.1c0-0.1-0.1-0.1-0.1-0.1l-1.1-0.6c-0.2-0.1-0.2-0.5,0-0.6l1.1-0.6c0.1,0,0.1-0.1,0.1-0.1l0.6-1.1  C177.9,183.7,178.2,183.7,178.3,183.9z"></path><path d="M79.2,98.3l0.5,1c0,0.1,0.1,0.1,0.1,0.1l0.9,0.5c0.2,0.1,0.2,0.4,0,0.5l-0.9,0.5c0,0-0.1,0.1-0.1,0.1l-0.5,1  c-0.1,0.2-0.4,0.2-0.5,0l-0.5-1c0-0.1-0.1-0.1-0.1-0.1l-0.9-0.5c-0.2-0.1-0.2-0.4,0-0.5l0.9-0.5c0,0,0.1-0.1,0.1-0.1l0.5-1  C78.8,98.1,79.1,98.1,79.2,98.3z"></path><path d="M106.4,67.8l0.5,1c0,0.1,0.1,0.1,0.1,0.1l1,0.6c0.2,0.1,0.2,0.4,0,0.6l-1,0.6c-0.1,0-0.1,0.1-0.1,0.1l-0.5,1  c-0.1,0.2-0.4,0.2-0.5,0l-0.5-1c0-0.1-0.1-0.1-0.1-0.1l-1-0.6c-0.2-0.1-0.2-0.4,0-0.6l1-0.6c0.1,0,0.1-0.1,0.1-0.1l0.5-1  C105.9,67.6,106.2,67.6,106.4,67.8z"></path><path d="M197.6,148.5l0.5,0.9c0,0,0.1,0.1,0.1,0.1l0.9,0.5c0.2,0.1,0.2,0.4,0,0.5l-0.9,0.5c0,0-0.1,0.1-0.1,0.1l-0.5,0.9  c-0.1,0.2-0.4,0.2-0.5,0l-0.5-0.9c0,0-0.1-0.1-0.1-0.1l-0.9-0.5c-0.2-0.1-0.2-0.4,0-0.5l0.9-0.5c0,0,0.1-0.1,0.1-0.1l0.5-0.9  C197.2,148.4,197.5,148.4,197.6,148.5z"></path><path d="M222.2,84.9l0.5,0.9c0,0,0.1,0.1,0.1,0.1l0.9,0.5c0.2,0.1,0.2,0.4,0,0.5l-0.9,0.5c0,0-0.1,0.1-0.1,0.1l-0.5,0.9  c-0.1,0.2-0.4,0.2-0.5,0l-0.5-0.9c0,0-0.1-0.1-0.1-0.1l-0.9-0.5c-0.2-0.1-0.2-0.4,0-0.5l0.9-0.5c0,0,0.1-0.1,0.1-0.1l0.5-0.9  C221.9,84.8,222.1,84.8,222.2,84.9z"></path><path d="M180.6,39.5l0.5,0.9c0,0,0.1,0.1,0.1,0.1L182,41c0.2,0.1,0.2,0.4,0,0.5l-0.9,0.5c0,0-0.1,0.1-0.1,0.1l-0.5,0.9  c-0.1,0.2-0.4,0.2-0.5,0l-0.5-0.9c0,0-0.1-0.1-0.1-0.1l-0.9-0.5c-0.2-0.1-0.2-0.4,0-0.5l0.9-0.5c0,0,0.1-0.1,0.1-0.1l0.5-0.9  C180.2,39.3,180.5,39.3,180.6,39.5z"></path><path d="M203.8,170l0.5,0.8c0,0,0.1,0.1,0.1,0.1l0.8,0.5c0.2,0.1,0.2,0.4,0,0.5l-0.8,0.5c0,0-0.1,0.1-0.1,0.1l-0.5,0.8  c-0.1,0.2-0.4,0.2-0.5,0l-0.5-0.8c0,0-0.1-0.1-0.1-0.1l-0.8-0.5c-0.2-0.1-0.2-0.4,0-0.5l0.8-0.5c0,0,0.1-0.1,0.1-0.1l0.5-0.8  C203.4,169.8,203.7,169.8,203.8,170z"></path><path d="M41.4,104.5l0.8,1.5c0,0.1,0.1,0.1,0.2,0.2l1.5,0.8c0.3,0.2,0.3,0.6,0,0.8l-1.5,0.8c-0.1,0-0.1,0.1-0.2,0.2l-0.8,1.5  c-0.2,0.3-0.6,0.3-0.8,0l-0.8-1.5c0-0.1-0.1-0.1-0.2-0.2l-1.5-0.8c-0.3-0.2-0.3-0.6,0-0.8l1.5-0.8c0.1,0,0.1-0.1,0.2-0.2l0.8-1.5  C40.7,104.2,41.2,104.2,41.4,104.5z"></path><path d="M167.5,220.2l1,1.8c0.1,0.1,0.1,0.2,0.2,0.2l1.8,1c0.4,0.2,0.4,0.8,0,1l-1.8,1c-0.1,0.1-0.2,0.1-0.2,0.2l-1,1.8  c-0.2,0.4-0.8,0.4-1,0l-1-1.8c-0.1-0.1-0.1-0.2-0.2-0.2l-1.8-1c-0.4-0.2-0.4-0.8,0-1l1.8-1c0.1-0.1,0.2-0.1,0.2-0.2l1-1.8  C166.7,219.8,167.3,219.8,167.5,220.2z"></path><path d="M225.5,138.1l0.8,1.5c0,0.1,0.1,0.1,0.2,0.2l1.5,0.8c0.3,0.2,0.3,0.6,0,0.8l-1.5,0.8c-0.1,0-0.1,0.1-0.2,0.2l-0.8,1.5  c-0.2,0.3-0.6,0.3-0.8,0l-0.8-1.5c0-0.1-0.1-0.1-0.2-0.2l-1.5-0.8c-0.3-0.2-0.3-0.6,0-0.8l1.5-0.8c0.1,0,0.1-0.1,0.2-0.2l0.8-1.5  C224.9,137.8,225.3,137.8,225.5,138.1z"></path><path d="M222.4,29.5l0.8,1.5c0,0.1,0.1,0.1,0.2,0.2l1.5,0.8c0.3,0.2,0.3,0.6,0,0.8l-1.5,0.8c-0.1,0-0.1,0.1-0.2,0.2l-0.8,1.5  c-0.2,0.3-0.6,0.3-0.8,0l-0.8-1.5c0-0.1-0.1-0.1-0.2-0.2l-1.5-0.8c-0.3-0.2-0.3-0.6,0-0.8l1.5-0.8c0.1,0,0.1-0.1,0.2-0.2l0.8-1.5  C221.8,29.2,222.2,29.2,222.4,29.5z"></path><path d="M194.7,199.3l0.8,1.5c0,0.1,0.1,0.1,0.2,0.2l1.5,0.8c0.3,0.2,0.3,0.6,0,0.8l-1.5,0.8c-0.1,0-0.1,0.1-0.2,0.2l-0.8,1.5  c-0.2,0.3-0.6,0.3-0.8,0l-0.8-1.5c0-0.1-0.1-0.1-0.2-0.2l-1.5-0.8c-0.3-0.2-0.3-0.6,0-0.8l1.5-0.8c0.1,0,0.1-0.1,0.2-0.2l0.8-1.5  C194,199,194.5,199,194.7,199.3z"></path><path d="M90.4,43.3l0.8,1.5c0,0.1,0.1,0.1,0.2,0.2l1.5,0.8c0.3,0.2,0.3,0.6,0,0.8l-1.5,0.8c-0.1,0-0.1,0.1-0.2,0.2L90.4,49  c-0.2,0.3-0.6,0.3-0.8,0l-0.8-1.5c0-0.1-0.1-0.1-0.2-0.2l-1.5-0.8c-0.3-0.2-0.3-0.6,0-0.8l1.5-0.8c0.1,0,0.1-0.1,0.2-0.2l0.8-1.5  C89.8,43,90.2,43,90.4,43.3z"></path><g><path d="M168.1,75.8c8-3.8,16.6-6.3,25.4-7.3c1.9-0.2,1.9-3.2,0-3c-9.4,1.1-18.4,3.6-26.9,7.7C164.9,74,166.4,76.6,168.1,75.8   L168.1,75.8z"></path></g></svg>