<?xml version="1.0" encoding="utf-8"?>
<!-- Generator: Adobe Illustrator 23.0.1, SVG Export Plug-In . SVG Version: 6.00 Build 0)  -->
<svg version="1.1" id="Layer_1" xmlns="http://www.w3.org/2000/svg" xmlns:xlink="http://www.w3.org/1999/xlink" x="0px" y="0px"
	 viewBox="0 0 1000 1000" style="enable-background:new 0 0 1000 1000;" xml:space="preserve">
<style type="text/css">
	.st0{fill:#DE156C;}
	.st1{clip-path:url(#SVGID_2_);}
	.st2{fill:#E34197;}
	.st3{fill:#E44097;}
	.st4{fill:#E43F97;}
	.st5{fill:#E53E96;}
	.st6{fill:#E53C96;}
	.st7{fill:#E63B95;}
	.st8{fill:#E73B95;}
	.st9{fill:#E63A95;}
	.st10{fill:#E73895;}
	.st11{fill:#E83794;}
	.st12{fill:#E83594;}
	.st13{fill:#E83393;}
	.st14{fill:#E93393;}
	.st15{fill:#E93293;}
	.st16{fill:#E83092;}
	.st17{fill:#E82E92;}
	.st18{fill:#E82D92;}
	.st19{fill:#E82B91;}
	.st20{fill:#E82990;}
	.st21{fill:#E8298F;}
	.st22{fill:#E7278E;}
	.st23{fill:#E7278D;}
	.st24{fill:#E8258C;}
	.st25{fill:#E7268B;}
	.st26{fill:#E8258B;}
	.st27{fill:#E8258A;}
	.st28{fill:#E62688;}
	.st29{fill:#E62687;}
	.st30{fill:#E52486;}
	.st31{fill:#E52485;}
	.st32{fill:#E52583;}
	.st33{fill:#E42382;}
	.st34{fill:#E42181;}
	.st35{fill:#E31F7F;}
	.st36{fill:#E31F7E;}
	.st37{fill:#E3207D;}
	.st38{fill:#E21E7D;}
	.st39{fill:#E21E7C;}
	.st40{fill:#E21E7B;}
	.st41{fill:#E11C7A;}
	.st42{fill:#E11D79;}
	.st43{fill:#E11D78;}
	.st44{fill:#E11B77;}
	.st45{fill:#E11B75;}
	.st46{fill:#E11974;}
	.st47{fill:#E01A73;}
	.st48{fill:#E01A72;}
	.st49{fill:#E01871;}
	.st50{fill:#DF1970;}
	.st51{fill:#DF196E;}
	.st52{fill:#DE156D;}
	.st53{fill:#48539D;}
	.st54{clip-path:url(#SVGID_4_);}
	.st55{fill:#808BC5;}
	.st56{fill:#7F8BC4;}
	.st57{fill:#7D8AC4;}
	.st58{fill:#7D89C4;}
	.st59{fill:#7C88C3;}
	.st60{fill:#7A87C2;}
	.st61{fill:#7985C1;}
	.st62{fill:#7884C1;}
	.st63{fill:#7883C0;}
	.st64{fill:#7682C0;}
	.st65{fill:#7582BF;}
	.st66{fill:#7580BF;}
	.st67{fill:#7380BE;}
	.st68{fill:#727FBE;}
	.st69{fill:#717DBD;}
	.st70{fill:#707DBC;}
	.st71{fill:#6F7CBC;}
	.st72{fill:#6E7BBB;}
	.st73{fill:#6E7ABB;}
	.st74{fill:#6C79BA;}
	.st75{fill:#6B78BA;}
	.st76{fill:#6A77B9;}
	.st77{fill:#6976B8;}
	.st78{fill:#6875B8;}
	.st79{fill:#6774B7;}
	.st80{fill:#6573B7;}
	.st81{fill:#6572B6;}
	.st82{fill:#6471B5;}
	.st83{fill:#6570B5;}
	.st84{fill:#636EB3;}
	.st85{fill:#626DB3;}
	.st86{fill:#606BB2;}
	.st87{fill:#5E6AB1;}
	.st88{fill:#5D69B1;}
	.st89{fill:#5C68B0;}
	.st90{fill:#5B67AF;}
	.st91{fill:#5B66AF;}
	.st92{fill:#5965AE;}
	.st93{fill:#5864AC;}
	.st94{fill:#5863AB;}
	.st95{fill:#5662AB;}
	.st96{fill:#5661AA;}
	.st97{fill:#5460A9;}
	.st98{fill:#545FA7;}
	.st99{fill:#525EA7;}
	.st100{fill:#515DA6;}
	.st101{fill:#515CA6;}
	.st102{fill:#4F5BA5;}
	.st103{fill:#4F5BA4;}
	.st104{fill:#4D59A3;}
	.st105{fill:#4D58A1;}
	.st106{fill:#4B57A0;}
	.st107{fill:#4A569F;}
	.st108{fill:#4A559F;}
	.st109{fill:#48549E;}
	.st110{fill:#252A60;}
	.st111{clip-path:url(#SVGID_6_);}
	.st112{fill:#4B549A;}
	.st113{fill:#4A549A;}
	.st114{fill:#4A5398;}
	.st115{fill:#495297;}
	.st116{fill:#485196;}
	.st117{fill:#495095;}
	.st118{fill:#475195;}
	.st119{fill:#465094;}
	.st120{fill:#474E93;}
	.st121{fill:#454D92;}
	.st122{fill:#444D90;}
	.st123{fill:#444C8F;}
	.st124{fill:#434B8E;}
	.st125{fill:#434A8D;}
	.st126{fill:#434A8C;}
	.st127{fill:#42498B;}
	.st128{fill:#40488A;}
	.st129{fill:#404789;}
	.st130{fill:#3F4788;}
	.st131{fill:#3F4687;}
	.st132{fill:#3E4586;}
	.st133{fill:#3D4484;}
	.st134{fill:#3D4483;}
	.st135{fill:#3C4382;}
	.st136{fill:#3C4281;}
	.st137{fill:#3B4180;}
	.st138{fill:#3A417F;}
	.st139{fill:#3A407E;}
	.st140{fill:#393F7E;}
	.st141{fill:#383E7C;}
	.st142{fill:#383E7B;}
	.st143{fill:#373D7A;}
	.st144{fill:#353C79;}
	.st145{fill:#353B78;}
	.st146{fill:#343B77;}
	.st147{fill:#333A76;}
	.st148{fill:#343975;}
	.st149{clip-path:url(#SVGID_8_);}
	.st150{fill:#323874;}
	.st151{clip-path:url(#SVGID_10_);}
	.st152{fill:#303873;}
	.st153{clip-path:url(#SVGID_12_);}
	.st154{fill:#303772;}
	.st155{clip-path:url(#SVGID_14_);}
	.st156{fill:#303671;}
	.st157{clip-path:url(#SVGID_16_);}
	.st158{fill:#2F3570;}
	.st159{clip-path:url(#SVGID_18_);}
	.st160{fill:#2F356F;}
	.st161{clip-path:url(#SVGID_20_);}
	.st162{fill:#2E346D;}
	.st163{clip-path:url(#SVGID_22_);}
	.st164{fill:#2E336D;}
	.st165{clip-path:url(#SVGID_24_);}
	.st166{fill:#2C326B;}
	.st167{clip-path:url(#SVGID_26_);}
	.st168{fill:#2C326A;}
	.st169{clip-path:url(#SVGID_28_);}
	.st170{fill:#2B3169;}
	.st171{clip-path:url(#SVGID_30_);}
	.st172{fill:#293068;}
	.st173{clip-path:url(#SVGID_32_);}
	.st174{fill:#2A2F67;}
	.st175{clip-path:url(#SVGID_34_);}
	.st176{fill:#292F66;}
	.st177{clip-path:url(#SVGID_36_);}
	.st178{fill:#272E65;}
	.st179{clip-path:url(#SVGID_38_);}
	.st180{fill:#272D64;}
	.st181{clip-path:url(#SVGID_40_);}
	.st182{fill:#272C63;}
	.st183{clip-path:url(#SVGID_42_);}
	.st184{fill:#242C62;}
	.st185{clip-path:url(#SVGID_44_);}
	.st186{fill:#252B61;}
</style>
<g transform="matrix(1.581498 0 0 1.581498 -39.43011 7.632051)">
	<g>
		<path id="D" class="st0" d="M493.3,387.8l-111.6-64.4c-9.7-5.7-22.1-2.5-27.9,7.1c-1.6,3.1-2.5,6.6-2.5,10.2v129.1
			c0.2,7.2,4,13.9,10.2,17.8l131.9,76.1c6.3,3.5,14,3.5,20.3,0l131.9-76.1c6.3-3.7,10.2-10.4,10.2-17.8V340.6
			c0-11.2-9.1-20.3-20.3-20.3c-3.5,0.1-7,0.9-10.2,2.5l-111.6,64.9C507.3,391.4,499.6,391.4,493.3,387.8z"/>
	</g>
	<g>
		<defs>
			<path id="SVGID_1_" d="M503.5,405.1V534c0,11.2,9.1,20.3,20.3,20.3c3.5-0.1,7-0.9,10.1-2.5l111.6-64.4
				c6.3-3.7,10.2-10.5,10.1-17.8V340.6c0-11.2-9.1-20.3-20.3-20.3c-3.5,0.1-7,0.9-10.1,2.5l-111.6,65
				C507.4,391.4,503.6,397.9,503.5,405.1L503.5,405.1z"/>
		</defs>
		<clipPath id="SVGID_2_">
			<use xlink:href="#SVGID_1_"  style="overflow:visible;"/>
		</clipPath>
		<g transform="matrix(.182709 0 0 .182709 6.171362 -2.253267)" class="st1">
			<g>
				<path id="E" class="st2" d="M2721.7,1765.5h833.2v22.5h-833.2V1765.5z"/>
			</g>
			<g>
				<path class="st3" d="M2721.7,1788h833.2v22.5h-833.2V1788z"/>
			</g>
			<g>
				<path class="st4" d="M2721.7,1810.4h833.2v22.5h-833.2V1810.4z"/>
			</g>
			<g>
				<path class="st5" d="M2721.7,1832.9h833.2v22.5h-833.2V1832.9z"/>
			</g>
			<g>
				<path class="st6" d="M2721.7,1855.4h833.2v22.5h-833.2V1855.4z"/>
			</g>
			<g>
				<path class="st6" d="M2721.7,1877.8h833.2v22.5h-833.2V1877.8z"/>
			</g>
			<g>
				<path class="st7" d="M2721.7,1900.3h833.2v22.5h-833.2V1900.3z"/>
			</g>
			<g>
				<path class="st8" d="M2721.7,1922.7h833.2v22.5h-833.2V1922.7z"/>
			</g>
			<g>
				<path class="st9" d="M2721.7,1945.2h833.2v22.5h-833.2V1945.2z"/>
			</g>
			<g>
				<path class="st10" d="M2721.7,1967.7h833.2v22.5h-833.2V1967.7z"/>
			</g>
			<g>
				<path class="st11" d="M2721.7,1990.1h833.2v22.5h-833.2V1990.1z"/>
			</g>
			<g>
				<path class="st12" d="M2721.7,2012.6h833.2v22.5h-833.2V2012.6z"/>
			</g>
			<g>
				<path class="st13" d="M2721.7,2035.1h833.2v22.5h-833.2V2035.1z"/>
			</g>
			<g>
				<path class="st14" d="M2721.7,2057.5h833.2v22.5h-833.2V2057.5z"/>
			</g>
			<g>
				<path class="st15" d="M2721.7,2080h833.2v22.5h-833.2V2080z"/>
			</g>
			<g>
				<path class="st16" d="M2721.7,2102.4h833.2v22.5h-833.2V2102.4z"/>
			</g>
			<g>
				<path class="st16" d="M2721.7,2124.9h833.2v22.5h-833.2V2124.9z"/>
			</g>
			<g>
				<path class="st17" d="M2721.7,2147.4h833.2v22.5h-833.2V2147.4z"/>
			</g>
			<g>
				<path class="st18" d="M2721.7,2169.8h833.2v22.5h-833.2V2169.8z"/>
			</g>
			<g>
				<path class="st18" d="M2721.7,2192.3h833.2v22.5h-833.2V2192.3z"/>
			</g>
			<g>
				<path class="st19" d="M2721.7,2214.8h833.2v22.5h-833.2V2214.8z"/>
			</g>
			<g>
				<path class="st20" d="M2721.7,2237.2h833.2v22.5h-833.2V2237.2z"/>
			</g>
			<g>
				<path class="st21" d="M2721.7,2259.7h833.2v22.5h-833.2V2259.7z"/>
			</g>
			<g>
				<path class="st22" d="M2721.7,2282h833.2v22.5h-833.2V2282z"/>
			</g>
			<g>
				<path class="st23" d="M2721.7,2304.6h833.2v22.5h-833.2V2304.6z"/>
			</g>
			<g>
				<path class="st24" d="M2721.7,2327.1h833.2v22.5h-833.2V2327.1z"/>
			</g>
			<g>
				<path class="st25" d="M2721.7,2349.5h833.2v22.5h-833.2V2349.5z"/>
			</g>
			<g>
				<path class="st26" d="M2721.7,2372h833.2v22.5h-833.2V2372z"/>
			</g>
			<g>
				<path class="st27" d="M2721.7,2394.5h833.2v22.5h-833.2V2394.5z"/>
			</g>
			<g>
				<path class="st28" d="M2721.7,2416.9h833.2v22.5h-833.2V2416.9z"/>
			</g>
			<g>
				<path class="st29" d="M2721.7,2439.4h833.2v22.5h-833.2V2439.4z"/>
			</g>
			<g>
				<path class="st30" d="M2721.7,2461.8h833.2v22.5h-833.2V2461.8z"/>
			</g>
			<g>
				<path class="st31" d="M2721.7,2484.3h833.2v22.5h-833.2V2484.3z"/>
			</g>
			<g>
				<path class="st32" d="M2721.7,2506.8h833.2v22.5h-833.2V2506.8z"/>
			</g>
			<g>
				<path class="st33" d="M2721.7,2529.2h833.2v22.5h-833.2V2529.2z"/>
			</g>
			<g>
				<path class="st33" d="M2721.7,2551.7h833.2v22.5h-833.2V2551.7z"/>
			</g>
			<g>
				<path class="st34" d="M2721.7,2574.3h833.2v22.5h-833.2V2574.3z"/>
			</g>
			<g>
				<path class="st35" d="M2721.7,2596.6h833.2v22.5h-833.2V2596.6z"/>
			</g>
			<g>
				<path class="st36" d="M2721.7,2619.1h833.2v22.5h-833.2V2619.1z"/>
			</g>
			<g>
				<path class="st37" d="M2721.7,2641.5h833.2v22.5h-833.2V2641.5z"/>
			</g>
			<g>
				<path class="st38" d="M2721.7,2664h833.2v22.5h-833.2V2664z"/>
			</g>
			<g>
				<path class="st39" d="M2721.7,2686.5h833.2v22.5h-833.2V2686.5z"/>
			</g>
			<g>
				<path class="st40" d="M2721.7,2708.9h833.2v22.5h-833.2V2708.9z"/>
			</g>
			<g>
				<path class="st41" d="M2721.7,2731.4h833.2v22.5h-833.2V2731.4z"/>
			</g>
			<g>
				<path class="st42" d="M2721.7,2753.8h833.2v22.5h-833.2V2753.8z"/>
			</g>
			<g>
				<path class="st43" d="M2721.7,2776.3h833.2v22.5h-833.2V2776.3z"/>
			</g>
			<g>
				<path class="st44" d="M2721.7,2798.8h833.2v22.5h-833.2V2798.8z"/>
			</g>
			<g>
				<path class="st45" d="M2721.7,2821.2h833.2v22.5h-833.2V2821.2z"/>
			</g>
			<g>
				<path class="st46" d="M2721.7,2843.7h833.2v22.5h-833.2V2843.7z"/>
			</g>
			<g>
				<path class="st47" d="M2721.7,2866.2h833.2v22.5h-833.2V2866.2z"/>
			</g>
			<g>
				<path class="st48" d="M2721.7,2888.6h833.2v22.5h-833.2V2888.6z"/>
			</g>
			<g>
				<path class="st49" d="M2721.7,2911.1h833.2v22.5h-833.2V2911.1z"/>
			</g>
			<g>
				<path class="st50" d="M2721.7,2933.5h833.2v22.5h-833.2V2933.5z"/>
			</g>
			<g>
				<path class="st50" d="M2721.7,2956h833.2v22.5h-833.2V2956z"/>
			</g>
			<g>
				<path class="st51" d="M2721.7,2978.5h833.2v22.5h-833.2V2978.5z"/>
			</g>
			<g>
				<path class="st52" d="M2721.7,3000.9h833.2v22.5h-833.2V3000.9z"/>
			</g>
			<g>
				<path class="st0" d="M2721.7,3023.4h833.2v22.5h-833.2V3023.4z"/>
			</g>
		</g>
	</g>
	<path class="st53" d="M462.9,59.5L351.2,124c-6.3,3.5-14,3.5-20.3,0L219.3,59.5c-9.7-5.7-22.1-2.5-27.9,7.1
		c-1.6,3.1-2.5,6.6-2.5,10.2v129.1c0.2,7.2,4,13.9,10.2,17.8l131.9,76.1c6.3,3.5,14,3.5,20.3,0l131.9-76.1
		c6.3-3.7,10.2-10.4,10.2-17.8V76.7c0-11.2-9.1-20.3-20.3-20.3C469.4,56.4,465.9,57.5,462.9,59.5z"/>
	<g>
		<defs>
			<path id="SVGID_3_" d="M462.9,59.5l-111.6,64.4c-6.3,3.7-10.2,10.5-10.1,17.8v128.9c0,11.2,9.1,20.3,20.3,20.3
				c3.5-0.1,7-0.9,10.1-2.5l111.6-64.4c6.3-3.7,10.2-10.5,10.1-17.8V76.7c0-11.2-9.1-20.3-20.3-20.3
				C469.4,56.4,465.9,57.5,462.9,59.5z"/>
		</defs>
		<clipPath id="SVGID_4_">
			<use xlink:href="#SVGID_3_"  style="overflow:visible;"/>
		</clipPath>
		<g transform="matrix(.182709 0 0 .182709 6.171362 -2.253267)" class="st54">
			<g>
				<path id="F" class="st55" d="M1833,321.3h833.2v22.5H1833L1833,321.3z"/>
			</g>
			<g>
				<path class="st56" d="M1833,343.8h833.2v22.5H1833L1833,343.8z"/>
			</g>
			<path class="st57" d="M1833,366.3h833.2v22.5H1833L1833,366.3z"/>
			<g>
				<path class="st58" d="M1833,388.8h833.2v22.5H1833L1833,388.8z"/>
			</g>
			<g>
				<path class="st59" d="M1833,411.2h833.2v22.5H1833L1833,411.2z"/>
			</g>
			<g>
				<path class="st60" d="M1833,433.7h833.2v22.5H1833L1833,433.7z"/>
			</g>
			<g>
				<path class="st61" d="M1833,456.2h833.2v22.5H1833L1833,456.2z"/>
			</g>
			<g>
				<path class="st62" d="M1833,478.7h833.2v22.5H1833L1833,478.7z"/>
			</g>
			<g>
				<path class="st63" d="M1833,501.2h833.2v22.5H1833L1833,501.2z"/>
			</g>
			<g>
				<path class="st64" d="M1833,523.6h833.2v22.5H1833L1833,523.6z"/>
			</g>
			<g>
				<path class="st65" d="M1833,546.1h833.2v22.5H1833L1833,546.1z"/>
			</g>
			<g>
				<path class="st66" d="M1833,568.6h833.2v22.5H1833L1833,568.6z"/>
			</g>
			<g>
				<path class="st67" d="M1833,591.1h833.2v22.5H1833L1833,591.1z"/>
			</g>
			<g>
				<path class="st68" d="M1833,613.6h833.2V636H1833L1833,613.6z"/>
			</g>
			<g>
				<path class="st69" d="M1833,636h833.2v22.5H1833L1833,636z"/>
			</g>
			<g>
				<path class="st70" d="M1833,658.5h833.2V681H1833L1833,658.5z"/>
			</g>
			<g>
				<path class="st71" d="M1833,681h833.2v22.5H1833L1833,681z"/>
			</g>
			<g>
				<path class="st72" d="M1833,703.5h833.2V726H1833L1833,703.5z"/>
			</g>
			<g>
				<path class="st73" d="M1833,726h833.2v22.5H1833L1833,726z"/>
			</g>
			<g>
				<path class="st74" d="M1833,748.4h833.2v22.5H1833L1833,748.4z"/>
			</g>
			<g>
				<path class="st75" d="M1833,770.9h833.2v22.5H1833L1833,770.9z"/>
			</g>
			<path class="st76" d="M1833,793.4h833.2v22.3H1833L1833,793.4z"/>
			<g>
				<path class="st77" d="M1833,815.7h833.2v22.5H1833L1833,815.7z"/>
			</g>
			<path class="st78" d="M1833,838.4h833.2v22.5H1833L1833,838.4z"/>
			<g>
				<path class="st79" d="M1833,860.8h833.2v22.5H1833L1833,860.8z"/>
			</g>
			<g>
				<path class="st80" d="M1833,883.3h833.2v22.5H1833L1833,883.3z"/>
			</g>
			<g>
				<path class="st81" d="M1833,905.8h833.2v22.5H1833L1833,905.8z"/>
			</g>
			<g>
				<path class="st82" d="M1833,928.3h833.2v22.5H1833L1833,928.3z"/>
			</g>
			<g>
				<path class="st83" d="M1833,950.8h833.2v22.5H1833L1833,950.8z"/>
			</g>
			<g>
				<path class="st84" d="M1833,973.2h833.2v22.5H1833L1833,973.2z"/>
			</g>
			<g>
				<path class="st85" d="M1833,995.7h833.2v22.5H1833L1833,995.7z"/>
			</g>
			<g>
				<path class="st86" d="M1833,1018.2h833.2v22.5H1833L1833,1018.2z"/>
			</g>
			<g>
				<path class="st86" d="M1833,1040.7h833.2v22.5H1833L1833,1040.7z"/>
			</g>
			<g>
				<path class="st87" d="M1833,1063.2h833.2v22.5H1833L1833,1063.2z"/>
			</g>
			<g>
				<path class="st88" d="M1833,1085.7h833.2v22.5H1833L1833,1085.7z"/>
			</g>
			<g>
				<path class="st89" d="M1833,1108.1h833.2v22.5H1833L1833,1108.1z"/>
			</g>
			<g>
				<path class="st90" d="M1833,1130.6h833.2v22.5H1833L1833,1130.6z"/>
			</g>
			<g>
				<path class="st91" d="M1833,1153.1h833.2v22.5H1833L1833,1153.1z"/>
			</g>
			<g>
				<path class="st92" d="M1833,1175.6h833.2v22.5H1833L1833,1175.6z"/>
			</g>
			<g>
				<path class="st93" d="M1833,1198.1h833.2v22.5H1833L1833,1198.1z"/>
			</g>
			<g>
				<path class="st94" d="M1833,1220.6h833.2v22.5H1833L1833,1220.6z"/>
			</g>
			<g>
				<path class="st95" d="M1833,1243h833.2v22.5H1833L1833,1243z"/>
			</g>
			<g>
				<path class="st96" d="M1833,1265.5h833.2v22.5H1833L1833,1265.5z"/>
			</g>
			<g>
				<path class="st97" d="M1833,1288h833.2v22.5H1833L1833,1288z"/>
			</g>
			<g>
				<path class="st98" d="M1833,1310.5h833.2v22.5H1833L1833,1310.5z"/>
			</g>
			<path class="st99" d="M1833,1333h833.2v22.3H1833L1833,1333z"/>
			<g>
				<path class="st100" d="M1833,1355.3h833.2v22.5H1833L1833,1355.3z"/>
			</g>
			<path class="st101" d="M1833,1377.9h833.2v22.5H1833L1833,1377.9z"/>
			<g>
				<path class="st102" d="M1833,1400.4h833.2v22.5H1833L1833,1400.4z"/>
			</g>
			<g>
				<path class="st103" d="M1833,1422.9h833.2v22.5H1833L1833,1422.9z"/>
			</g>
			<g>
				<path class="st104" d="M1833,1445.4h833.2v22.5H1833L1833,1445.4z"/>
			</g>
			<g>
				<path class="st105" d="M1833,1467.9h833.2v22.5H1833L1833,1467.9z"/>
			</g>
			<g>
				<path class="st106" d="M1833,1490.3h833.2v22.5H1833L1833,1490.3z"/>
			</g>
			<g>
				<path class="st107" d="M1833,1512.8h833.2v22.5H1833L1833,1512.8z"/>
			</g>
			<g>
				<path class="st108" d="M1833,1535.3h833.2v22.5H1833L1833,1535.3z"/>
			</g>
			<g>
				<path class="st109" d="M1833,1557.8h833.2v22.5H1833L1833,1557.8z"/>
			</g>
			<g>
				<g>
					<path class="st53" d="M1833,1580.2h833.2v22.5H1833L1833,1580.2z"/>
				</g>
				<path class="st53" d="M1833,1602.7h833.2v1.6H1833L1833,1602.7z"/>
			</g>
		</g>
	</g>
	<g>
		<path class="st110" d="M168.6,387.8L56.9,323.4c-9.7-5.7-22.1-2.5-27.9,7.1c-1.6,3.1-2.5,6.6-2.5,10.2v129.1
			c0.2,7.2,4,13.9,10.2,17.8l131.9,76.1c6.3,3.5,14,3.5,20.3,0l131.9-76.1c6.3-3.7,10.2-10.4,10.2-17.8V340.6
			c0-11.2-9.1-20.3-20.3-20.3c-3.5,0.1-7,0.9-10.2,2.5l-111.6,64.9C182.6,391.4,174.9,391.4,168.6,387.8z"/>
	</g>
	<g>
		<defs>
			<path id="SVGID_5_" d="M178.7,405.1V534c0,11.2,9.1,20.3,20.3,20.3c3.5-0.1,7-0.9,10.1-2.5l111.6-64.4
				c6.3-3.7,10.2-10.5,10.1-17.8V340.6c0-11.2-9.1-20.3-20.3-20.3c-3.5,0.1-7,0.9-10.1,2.5l-111.6,65
				C182.7,391.4,178.8,397.9,178.7,405.1L178.7,405.1z"/>
		</defs>
		<clipPath id="SVGID_6_">
			<use xlink:href="#SVGID_5_"  style="overflow:visible;"/>
		</clipPath>
		<g transform="matrix(.182709 0 0 .182709 6.171362 -2.253267)" class="st111">
			<g>
				<path id="G" class="st112" d="M944.3,1765.5h833.2v22.5H944.3V1765.5z"/>
			</g>
			<g>
				<path class="st113" d="M944.3,1788h833.2v22.5H944.3V1788z"/>
			</g>
			<g>
				<path class="st114" d="M944.3,1810.4h833.2v22.5H944.3V1810.4z"/>
			</g>
			<g>
				<path class="st115" d="M944.3,1832.9h833.2v22.5H944.3V1832.9z"/>
			</g>
			<g>
				<path class="st116" d="M944.3,1855.4h833.2v22.5H944.3V1855.4z"/>
			</g>
			<g>
				<path class="st117" d="M944.3,1877.8h833.2v22.5H944.3V1877.8z"/>
			</g>
			<g>
				<path class="st118" d="M944.3,1900.3h833.2v22.5H944.3V1900.3z"/>
			</g>
			<g>
				<path class="st119" d="M944.3,1922.7h833.2v22.5H944.3V1922.7z"/>
			</g>
			<g>
				<path class="st120" d="M944.3,1945.2h833.2v22.5H944.3V1945.2z"/>
			</g>
			<g>
				<path class="st121" d="M944.3,1967.7h833.2v22.5H944.3V1967.7z"/>
			</g>
			<g>
				<path class="st122" d="M944.3,1990.1h833.2v22.5H944.3V1990.1z"/>
			</g>
			<g>
				<path class="st123" d="M944.3,2012.6h833.2v22.5H944.3V2012.6z"/>
			</g>
			<g>
				<path class="st124" d="M944.3,2035.1h833.2v22.5H944.3V2035.1z"/>
			</g>
			<g>
				<path class="st125" d="M944.3,2057.5h833.2v22.5H944.3V2057.5z"/>
			</g>
			<g>
				<path class="st126" d="M944.3,2080h833.2v22.5H944.3V2080z"/>
			</g>
			<g>
				<path class="st127" d="M944.3,2102.4h833.2v22.5H944.3V2102.4z"/>
			</g>
			<g>
				<path class="st128" d="M944.3,2124.9h833.2v22.5H944.3V2124.9z"/>
			</g>
			<g>
				<path class="st129" d="M944.3,2147.4h833.2v22.5H944.3V2147.4z"/>
			</g>
			<g>
				<path class="st130" d="M944.3,2169.8h833.2v22.5H944.3V2169.8z"/>
			</g>
			<g>
				<path class="st131" d="M944.3,2192.3h833.2v22.5H944.3V2192.3z"/>
			</g>
			<g>
				<path class="st132" d="M944.3,2214.8h833.2v22.5H944.3V2214.8z"/>
			</g>
			<g>
				<path class="st133" d="M944.3,2237.2h833.2v22.5H944.3V2237.2z"/>
			</g>
			<g>
				<path class="st134" d="M944.3,2259.7h833.2v22.5H944.3V2259.7z"/>
			</g>
			<g>
				<path class="st135" d="M944.3,2282h833.2v22.5H944.3V2282z"/>
			</g>
			<g>
				<path class="st136" d="M944.3,2304.6h833.2v22.5H944.3V2304.6z"/>
			</g>
			<g>
				<path class="st137" d="M944.3,2327.1h833.2v22.5H944.3V2327.1z"/>
			</g>
			<g>
				<path class="st138" d="M944.3,2349.5h833.2v22.5H944.3V2349.5z"/>
			</g>
			<g>
				<path class="st139" d="M944.3,2372h833.2v22.5H944.3V2372z"/>
			</g>
			<g>
				<path class="st140" d="M944.3,2394.5h833.2v22.5H944.3V2394.5z"/>
			</g>
			<g>
				<path class="st141" d="M944.3,2416.9h833.2v22.5H944.3V2416.9z"/>
			</g>
			<g>
				<path class="st142" d="M944.3,2439.4h833.2v22.5H944.3V2439.4z"/>
			</g>
			<g>
				<path class="st143" d="M944.3,2461.8h833.2v22.5H944.3V2461.8z"/>
			</g>
			<g>
				<path class="st144" d="M944.3,2484.3h833.2v22.5H944.3V2484.3z"/>
			</g>
			<g>
				<path class="st145" d="M944.3,2506.8h833.2v22.5H944.3V2506.8z"/>
			</g>
			<g>
				<path class="st146" d="M944.3,2529.2h833.2v22.5H944.3V2529.2z"/>
			</g>
			<g>
				<path class="st147" d="M944.3,2551.7h833.2v22.5H944.3V2551.7z"/>
			</g>
			<g>
				<path class="st148" d="M944.3,2574.3h833.2v22.5H944.3V2574.3z"/>
			</g>
			<g>
				<defs>
					<path id="SVGID_7_" d="M2721.7,2229.3v705.4c0.2,61.3,49.8,110.9,111.1,111.1c19.3-0.3,38.3-5.1,55.5-13.9l611-352.7
						c34.5-20.2,55.7-57.2,55.5-97.2v-705.4c-0.2-61.3-49.8-110.9-111.1-111.1c-19.3,0.3-38.3,5.1-55.5,13.9l-611,355.5
						C2743.4,2154.4,2722.3,2190.2,2721.7,2229.3L2721.7,2229.3z"/>
				</defs>
				<clipPath id="SVGID_8_">
					<use xlink:href="#SVGID_7_"  style="overflow:visible;"/>
				</clipPath>
				<g class="st149">
					<path class="st150" d="M944.3,2596.6h833.2v22.5H944.3V2596.6z"/>
				</g>
			</g>
			<g>
				<defs>
					<path id="SVGID_9_" d="M2721.7,2229.3v705.4c0.2,61.3,49.8,110.9,111.1,111.1c19.3-0.3,38.3-5.1,55.5-13.9l611-352.7
						c34.5-20.2,55.7-57.2,55.5-97.2v-705.4c-0.2-61.3-49.8-110.9-111.1-111.1c-19.3,0.3-38.3,5.1-55.5,13.9l-611,355.5
						C2743.4,2154.4,2722.3,2190.2,2721.7,2229.3L2721.7,2229.3z"/>
				</defs>
				<clipPath id="SVGID_10_">
					<use xlink:href="#SVGID_9_"  style="overflow:visible;"/>
				</clipPath>
				<g class="st151">
					<path class="st152" d="M944.3,2619.1h833.2v22.5H944.3V2619.1z"/>
				</g>
			</g>
			<g>
				<defs>
					<path id="SVGID_11_" d="M2721.7,2229.3v705.4c0.2,61.3,49.8,110.9,111.1,111.1c19.3-0.3,38.3-5.1,55.5-13.9l611-352.7
						c34.5-20.2,55.7-57.2,55.5-97.2v-705.4c-0.2-61.3-49.8-110.9-111.1-111.1c-19.3,0.3-38.3,5.1-55.5,13.9l-611,355.5
						C2743.4,2154.4,2722.3,2190.2,2721.7,2229.3L2721.7,2229.3z"/>
				</defs>
				<clipPath id="SVGID_12_">
					<use xlink:href="#SVGID_11_"  style="overflow:visible;"/>
				</clipPath>
				<g class="st153">
					<path class="st154" d="M944.3,2641.5h833.2v22.5H944.3V2641.5z"/>
				</g>
			</g>
			<g>
				<defs>
					<path id="SVGID_13_" d="M2721.7,2229.3v705.4c0.2,61.3,49.8,110.9,111.1,111.1c19.3-0.3,38.3-5.1,55.5-13.9l611-352.7
						c34.5-20.2,55.7-57.2,55.5-97.2v-705.4c-0.2-61.3-49.8-110.9-111.1-111.1c-19.3,0.3-38.3,5.1-55.5,13.9l-611,355.5
						C2743.4,2154.4,2722.3,2190.2,2721.7,2229.3L2721.7,2229.3z"/>
				</defs>
				<clipPath id="SVGID_14_">
					<use xlink:href="#SVGID_13_"  style="overflow:visible;"/>
				</clipPath>
				<g class="st155">
					<path class="st156" d="M944.3,2664h833.2v22.5H944.3V2664z"/>
				</g>
			</g>
			<g>
				<defs>
					<path id="SVGID_15_" d="M2721.7,2229.3v705.4c0.2,61.3,49.8,110.9,111.1,111.1c19.3-0.3,38.3-5.1,55.5-13.9l611-352.7
						c34.5-20.2,55.7-57.2,55.5-97.2v-705.4c-0.2-61.3-49.8-110.9-111.1-111.1c-19.3,0.3-38.3,5.1-55.5,13.9l-611,355.5
						C2743.4,2154.4,2722.3,2190.2,2721.7,2229.3L2721.7,2229.3z"/>
				</defs>
				<clipPath id="SVGID_16_">
					<use xlink:href="#SVGID_15_"  style="overflow:visible;"/>
				</clipPath>
				<g class="st157">
					<path class="st158" d="M944.3,2686.5h833.2v22.5H944.3V2686.5z"/>
				</g>
			</g>
			<g>
				<defs>
					<path id="SVGID_17_" d="M2721.7,2229.3v705.4c0.2,61.3,49.8,110.9,111.1,111.1c19.3-0.3,38.3-5.1,55.5-13.9l611-352.7
						c34.5-20.2,55.7-57.2,55.5-97.2v-705.4c-0.2-61.3-49.8-110.9-111.1-111.1c-19.3,0.3-38.3,5.1-55.5,13.9l-611,355.5
						C2743.4,2154.4,2722.3,2190.2,2721.7,2229.3L2721.7,2229.3z"/>
				</defs>
				<clipPath id="SVGID_18_">
					<use xlink:href="#SVGID_17_"  style="overflow:visible;"/>
				</clipPath>
				<g class="st159">
					<path class="st160" d="M944.3,2708.9h833.2v22.5H944.3V2708.9z"/>
				</g>
			</g>
			<g>
				<defs>
					<path id="SVGID_19_" d="M2721.7,2229.3v705.4c0.2,61.3,49.8,110.9,111.1,111.1c19.3-0.3,38.3-5.1,55.5-13.9l611-352.7
						c34.5-20.2,55.7-57.2,55.5-97.2v-705.4c-0.2-61.3-49.8-110.9-111.1-111.1c-19.3,0.3-38.3,5.1-55.5,13.9l-611,355.5
						C2743.4,2154.4,2722.3,2190.2,2721.7,2229.3L2721.7,2229.3z"/>
				</defs>
				<clipPath id="SVGID_20_">
					<use xlink:href="#SVGID_19_"  style="overflow:visible;"/>
				</clipPath>
				<g class="st161">
					<path class="st162" d="M944.3,2731.4h833.2v22.5H944.3V2731.4z"/>
				</g>
			</g>
			<g>
				<defs>
					<path id="SVGID_21_" d="M2721.7,2229.3v705.4c0.2,61.3,49.8,110.9,111.1,111.1c19.3-0.3,38.3-5.1,55.5-13.9l611-352.7
						c34.5-20.2,55.7-57.2,55.5-97.2v-705.4c-0.2-61.3-49.8-110.9-111.1-111.1c-19.3,0.3-38.3,5.1-55.5,13.9l-611,355.5
						C2743.4,2154.4,2722.3,2190.2,2721.7,2229.3L2721.7,2229.3z"/>
				</defs>
				<clipPath id="SVGID_22_">
					<use xlink:href="#SVGID_21_"  style="overflow:visible;"/>
				</clipPath>
				<g class="st163">
					<path class="st164" d="M944.3,2753.8h833.2v22.5H944.3V2753.8z"/>
				</g>
			</g>
			<g>
				<defs>
					<path id="SVGID_23_" d="M2721.7,2229.3v705.4c0.2,61.3,49.8,110.9,111.1,111.1c19.3-0.3,38.3-5.1,55.5-13.9l611-352.7
						c34.5-20.2,55.7-57.2,55.5-97.2v-705.4c-0.2-61.3-49.8-110.9-111.1-111.1c-19.3,0.3-38.3,5.1-55.5,13.9l-611,355.5
						C2743.4,2154.4,2722.3,2190.2,2721.7,2229.3L2721.7,2229.3z"/>
				</defs>
				<clipPath id="SVGID_24_">
					<use xlink:href="#SVGID_23_"  style="overflow:visible;"/>
				</clipPath>
				<g class="st165">
					<path class="st166" d="M944.3,2776.3h833.2v22.5H944.3V2776.3z"/>
				</g>
			</g>
			<g>
				<defs>
					<path id="SVGID_25_" d="M2721.7,2229.3v705.4c0.2,61.3,49.8,110.9,111.1,111.1c19.3-0.3,38.3-5.1,55.5-13.9l611-352.7
						c34.5-20.2,55.7-57.2,55.5-97.2v-705.4c-0.2-61.3-49.8-110.9-111.1-111.1c-19.3,0.3-38.3,5.1-55.5,13.9l-611,355.5
						C2743.4,2154.4,2722.3,2190.2,2721.7,2229.3L2721.7,2229.3z"/>
				</defs>
				<clipPath id="SVGID_26_">
					<use xlink:href="#SVGID_25_"  style="overflow:visible;"/>
				</clipPath>
				<g class="st167">
					<path class="st168" d="M944.3,2798.8h833.2v22.5H944.3V2798.8z"/>
				</g>
			</g>
			<g>
				<defs>
					<path id="SVGID_27_" d="M2721.7,2229.3v705.4c0.2,61.3,49.8,110.9,111.1,111.1c19.3-0.3,38.3-5.1,55.5-13.9l611-352.7
						c34.5-20.2,55.7-57.2,55.5-97.2v-705.4c-0.2-61.3-49.8-110.9-111.1-111.1c-19.3,0.3-38.3,5.1-55.5,13.9l-611,355.5
						C2743.4,2154.4,2722.3,2190.2,2721.7,2229.3L2721.7,2229.3z"/>
				</defs>
				<clipPath id="SVGID_28_">
					<use xlink:href="#SVGID_27_"  style="overflow:visible;"/>
				</clipPath>
				<g class="st169">
					<path class="st170" d="M944.3,2821.2h833.2v22.5H944.3V2821.2z"/>
				</g>
			</g>
			<g>
				<defs>
					<path id="SVGID_29_" d="M2721.7,2229.3v705.4c0.2,61.3,49.8,110.9,111.1,111.1c19.3-0.3,38.3-5.1,55.5-13.9l611-352.7
						c34.5-20.2,55.7-57.2,55.5-97.2v-705.4c-0.2-61.3-49.8-110.9-111.1-111.1c-19.3,0.3-38.3,5.1-55.5,13.9l-611,355.5
						C2743.4,2154.4,2722.3,2190.2,2721.7,2229.3L2721.7,2229.3z"/>
				</defs>
				<clipPath id="SVGID_30_">
					<use xlink:href="#SVGID_29_"  style="overflow:visible;"/>
				</clipPath>
				<g class="st171">
					<path class="st172" d="M944.3,2843.7h833.2v22.5H944.3V2843.7z"/>
				</g>
			</g>
			<g>
				<defs>
					<path id="SVGID_31_" d="M2721.7,2229.3v705.4c0.2,61.3,49.8,110.9,111.1,111.1c19.3-0.3,38.3-5.1,55.5-13.9l611-352.7
						c34.5-20.2,55.7-57.2,55.5-97.2v-705.4c-0.2-61.3-49.8-110.9-111.1-111.1c-19.3,0.3-38.3,5.1-55.5,13.9l-611,355.5
						C2743.4,2154.4,2722.3,2190.2,2721.7,2229.3L2721.7,2229.3z"/>
				</defs>
				<clipPath id="SVGID_32_">
					<use xlink:href="#SVGID_31_"  style="overflow:visible;"/>
				</clipPath>
				<g class="st173">
					<path class="st174" d="M944.3,2866.2h833.2v22.5H944.3V2866.2z"/>
				</g>
			</g>
			<g>
				<defs>
					<path id="SVGID_33_" d="M2721.7,2229.3v705.4c0.2,61.3,49.8,110.9,111.1,111.1c19.3-0.3,38.3-5.1,55.5-13.9l611-352.7
						c34.5-20.2,55.7-57.2,55.5-97.2v-705.4c-0.2-61.3-49.8-110.9-111.1-111.1c-19.3,0.3-38.3,5.1-55.5,13.9l-611,355.5
						C2743.4,2154.4,2722.3,2190.2,2721.7,2229.3L2721.7,2229.3z"/>
				</defs>
				<clipPath id="SVGID_34_">
					<use xlink:href="#SVGID_33_"  style="overflow:visible;"/>
				</clipPath>
				<g class="st175">
					<path class="st176" d="M944.3,2888.6h833.2v22.5H944.3V2888.6z"/>
				</g>
			</g>
			<g>
				<defs>
					<path id="SVGID_35_" d="M2721.7,2229.3v705.4c0.2,61.3,49.8,110.9,111.1,111.1c19.3-0.3,38.3-5.1,55.5-13.9l611-352.7
						c34.5-20.2,55.7-57.2,55.5-97.2v-705.4c-0.2-61.3-49.8-110.9-111.1-111.1c-19.3,0.3-38.3,5.1-55.5,13.9l-611,355.5
						C2743.4,2154.4,2722.3,2190.2,2721.7,2229.3L2721.7,2229.3z"/>
				</defs>
				<clipPath id="SVGID_36_">
					<use xlink:href="#SVGID_35_"  style="overflow:visible;"/>
				</clipPath>
				<g class="st177">
					<path class="st178" d="M944.3,2911.1h833.2v22.5H944.3V2911.1z"/>
				</g>
			</g>
			<g>
				<defs>
					<path id="SVGID_37_" d="M2721.7,2229.3v705.4c0.2,61.3,49.8,110.9,111.1,111.1c19.3-0.3,38.3-5.1,55.5-13.9l611-352.7
						c34.5-20.2,55.7-57.2,55.5-97.2v-705.4c-0.2-61.3-49.8-110.9-111.1-111.1c-19.3,0.3-38.3,5.1-55.5,13.9l-611,355.5
						C2743.4,2154.4,2722.3,2190.2,2721.7,2229.3L2721.7,2229.3z"/>
				</defs>
				<clipPath id="SVGID_38_">
					<use xlink:href="#SVGID_37_"  style="overflow:visible;"/>
				</clipPath>
				<g class="st179">
					<path class="st180" d="M944.3,2933.5h833.2v22.5H944.3V2933.5z"/>
				</g>
			</g>
			<g>
				<defs>
					<path id="SVGID_39_" d="M2721.7,2229.3v705.4c0.2,61.3,49.8,110.9,111.1,111.1c19.3-0.3,38.3-5.1,55.5-13.9l611-352.7
						c34.5-20.2,55.7-57.2,55.5-97.2v-705.4c-0.2-61.3-49.8-110.9-111.1-111.1c-19.3,0.3-38.3,5.1-55.5,13.9l-611,355.5
						C2743.4,2154.4,2722.3,2190.2,2721.7,2229.3L2721.7,2229.3z"/>
				</defs>
				<clipPath id="SVGID_40_">
					<use xlink:href="#SVGID_39_"  style="overflow:visible;"/>
				</clipPath>
				<g class="st181">
					<path class="st182" d="M944.3,2956h833.2v22.5H944.3V2956z"/>
				</g>
			</g>
			<g>
				<defs>
					<path id="SVGID_41_" d="M2721.7,2229.3v705.4c0.2,61.3,49.8,110.9,111.1,111.1c19.3-0.3,38.3-5.1,55.5-13.9l611-352.7
						c34.5-20.2,55.7-57.2,55.5-97.2v-705.4c-0.2-61.3-49.8-110.9-111.1-111.1c-19.3,0.3-38.3,5.1-55.5,13.9l-611,355.5
						C2743.4,2154.4,2722.3,2190.2,2721.7,2229.3L2721.7,2229.3z"/>
				</defs>
				<clipPath id="SVGID_42_">
					<use xlink:href="#SVGID_41_"  style="overflow:visible;"/>
				</clipPath>
				<g class="st183">
					<path class="st184" d="M944.3,2978.5h833.2v22.5H944.3V2978.5z"/>
				</g>
			</g>
			<g>
				<defs>
					<path id="SVGID_43_" d="M2721.7,2229.3v705.4c0.2,61.3,49.8,110.9,111.1,111.1c19.3-0.3,38.3-5.1,55.5-13.9l611-352.7
						c34.5-20.2,55.7-57.2,55.5-97.2v-705.4c-0.2-61.3-49.8-110.9-111.1-111.1c-19.3,0.3-38.3,5.1-55.5,13.9l-611,355.5
						C2743.4,2154.4,2722.3,2190.2,2721.7,2229.3L2721.7,2229.3z"/>
				</defs>
				<clipPath id="SVGID_44_">
					<use xlink:href="#SVGID_43_"  style="overflow:visible;"/>
				</clipPath>
				<g class="st185">
					<path class="st186" d="M944.3,3000.9h833.2v22.5H944.3V3000.9z"/>
				</g>
			</g>
			<g>
				<path class="st110" d="M944.3,3023.4h833.2v22.5H944.3V3023.4z"/>
			</g>
		</g>
	</g>
</g>
</svg>
