<?xml version="1.0"?>
<svg xmlns="http://www.w3.org/2000/svg" width="24" height="24" viewBox="0 0 24 24">
    <path style="text-indent:0;text-align:start;line-height:normal;text-transform:none;block-progression:tb;-inkscape-font-specification:Bitstream Vera Sans" d="M 22.5 0.09375 L 18.15625 4.4375 L 16.40625 2.6875 C 15.50625 1.7875 14.2125 1.7875 13.3125 2.6875 L 9.90625 6.09375 L 8.90625 5.09375 L 7.5 6.5 L 17.5 16.5 L 18.90625 15.09375 L 17.90625 14.09375 L 21.3125 10.6875 C 22.2125 9.7875 22.2125 8.49375 21.3125 7.59375 L 19.5625 5.84375 L 23.90625 1.5 L 22.5 0.09375 z M 6.5 7.5 L 5.09375 8.90625 L 6.09375 9.90625 L 2.6875 13.3125 C 1.7875 14.2125 1.7875 15.50625 2.6875 16.40625 L 4.4375 18.15625 L 0.09375 22.5 L 1.5 23.90625 L 5.84375 19.5625 L 7.59375 21.3125 C 8.49375 22.2125 9.7875 22.2125 10.6875 21.3125 L 14.09375 17.90625 L 15.09375 18.90625 L 16.5 17.5 L 6.5 7.5 z" overflow="visible" enable-background="accumulate" font-family="Bitstream Vera Sans"/>
</svg>
