<svg height="185" preserveAspectRatio="xMidYMid" viewBox="0 0 256 185" width="256" xmlns="http://www.w3.org/2000/svg"><path d="m250.715745 70.4971666c-5.764643-3.9998389-18.975281-5.4997786-29.303599-3.4998595-1.200967-9.9995979-6.725416-18.7492462-16.333153-26.4989347l-5.524449-3.9998393-3.843095 5.7497689c-4.803869 7.4996986-7.205803 17.9992766-6.485223 27.9988749.240194 3.4998595 1.441161 9.7496078 5.044063 15.2493871-3.362709 1.9999198-10.328318 4.499819-19.455668 4.499819h-173.65985102l-.48038688 1.9999198c-1.68135403 9.9995972-1.68135403 41.2483422 18.0145073 65.2473782 14.8919927 18.249266 36.9897884 27.498894 66.0531938 27.498894 62.9306788 0 109.5282048-30.248784 131.3858068-84.9965841 8.646963.2499904 27.141857 0 36.509401-18.7492459.240194-.4999801.72058-1.4999404 2.401935-5.2497896l.960773-1.999919zm-110.729172-70.4971666h-26.421278v24.9989952h26.421278zm0 29.9987943h-26.421278v24.9989953h26.421278zm-31.225146 0h-26.4212775v24.9989953h26.4212775zm-31.2251456 0h-26.4212777v24.9989953h26.4212777zm-31.2251464 29.9987943h-26.4212774v24.9989953h26.4212774zm31.2251464 0h-26.4212777v24.9989953h26.4212777zm31.2251456 0h-26.4212775v24.9989953h26.4212775zm31.225146 0h-26.421278v24.9989953h26.421278zm31.225146 0h-26.421278v24.9989953h26.421278z" fill="#2396ed"/></svg>