<?xml version="1.0" encoding="UTF-8" standalone="no"?>
<!-- Uploaded to: SVG Repo, www.svgrepo.com, Transformed by: SVG Repo Mixer Tools -->

<svg
   fill="#ffffff"
   height="800px"
   width="800px"
   version="1.1"
   id="Capa_1"
   viewBox="-72.45 -72.45 627.91 627.91"
   xml:space="preserve"
   stroke="#ffffff"
   sodipodi:docname="hexagon1-empty-bold copy.svg"
   inkscape:version="1.2.1 (9c6d41e4, 2022-07-14)"
   xmlns:inkscape="http://www.inkscape.org/namespaces/inkscape"
   xmlns:sodipodi="http://sodipodi.sourceforge.net/DTD/sodipodi-0.dtd"
   xmlns="http://www.w3.org/2000/svg"
   xmlns:svg="http://www.w3.org/2000/svg"><defs
   id="defs1197" /><sodipodi:namedview
   id="namedview1195"
   pagecolor="#ffffff"
   bordercolor="#666666"
   borderopacity="1.0"
   inkscape:showpageshadow="2"
   inkscape:pageopacity="0.0"
   inkscape:pagecheckerboard="0"
   inkscape:deskcolor="#d1d1d1"
   showgrid="false"
   inkscape:zoom="1.28375"
   inkscape:cx="254.33301"
   inkscape:cy="403.89484"
   inkscape:window-width="2123"
   inkscape:window-height="1205"
   inkscape:window-x="0"
   inkscape:window-y="25"
   inkscape:window-maximized="0"
   inkscape:current-layer="Capa_1" />





<g
   id="SVGRepo_iconCarrier"> <path
   id="path1327"
   style="color:#000000;display:inline;fill:#8560a9;stroke-width:0;stroke-dasharray:none"
   d="m 143.04148,-21.916735 c -33.09215,0 -63.871156,17.7862618 -80.424912,46.417204 l -0.0138,0.02453 -98.460457,170.527543 -0.01073,0.0184 c -16.531139,28.65799 -16.528344,64.19705 0,92.85434 l 0.0092,0.0184 98.463523,170.54287 0.01226,0.0245 c 16.553249,28.63007 47.330732,46.41874 80.424912,46.41874 h 196.92551 c 33.09401,0 63.8794,-17.78163 80.43104,-46.43407 l 0.006,-0.008 98.46966,-170.54287 0.0107,-0.023 c 16.52599,-28.65682 16.5273,-64.19221 -0.002,-92.84973 l -0.0123,-0.0199 -98.46659,-170.529076 -0.006,-0.0092 C 403.84515,-4.1367058 373.06059,-21.916735 339.96852,-21.916735 Z m 0,48.301241 h 196.92704 c 15.92399,0 30.63267,8.490658 38.60666,22.292644 l 98.46812,170.52754 c 7.95999,13.80099 7.95999,30.78537 0,44.58836 l -98.46966,170.54287 c -7.97299,13.80198 -22.68167,22.29264 -38.60665,22.29264 H 143.04148 c -15.92299,0 -30.6282,-8.49066 -38.60819,-22.29264 L 5.9712987,263.79305 c -7.960992,-13.80299 -7.960992,-30.78737 0,-44.58836 L 104.43329,48.67715 c 7.97999,-13.801986 22.6852,-22.292644 38.60819,-22.292644 z"
   sodipodi:nodetypes="sccccccccssccccccccssssccccssccccs" /> </g>

</svg>
