<!DOCTYPE svg PUBLIC "-//W3C//DTD SVG 1.1//EN" "http://www.w3.org/Graphics/SVG/1.1/DTD/svg11.dtd">

<!-- Uploaded to: SVG Repo, www.svgrepo.com, Transformed by: SVG Repo Mixer Tools -->
<svg fill="#ffffff" height="800px" width="800px" version="1.1" xmlns="http://www.w3.org/2000/svg" viewBox="-66.56 -66.56 645.12 645.12" xmlns:xlink="http://www.w3.org/1999/xlink" enable-background="new 0 0 512 512" stroke="#ffffff" transform="matrix(1, 0, 0, -1, 0, 0)rotate(90)" stroke-width="0.00512">

<g id="SVGRepo_bgCarrier" stroke-width="0"/>

<g id="SVGRepo_tracerCarrier" stroke-linecap="round" stroke-linejoin="round" stroke="#8560A9" stroke-width="102.4"> <g> <g> <path d="m365.5,191.5v-106.7c0-7.2-3.8-13.8-9.9-17.5l-89-53.4c-6.5-3.9-14.5-3.9-21,0l-89.1,53.4c-6.2,3.7-9.9,10.3-9.9,17.5v106.7c0,7.2 3.8,13.8 9.9,17.5l89.1,53.4c9.4,5.4 17.2,2.5 21,0l89-53.4c6.1-3.7 9.9-10.3 9.9-17.5z"/> <path d="m220,303l-89-53.4c-6.5-3.9-14.5-3.9-21,0l-89.1,53.4c-6.2,3.7-9.9,10.3-9.9,17.5v106.7c0,7.2 3.8,13.8 9.9,17.5l89.1,53.4c9.4,5.4 17.2,2.5 21,0l89-53.4c6.2-3.7 9.9-10.3 9.9-17.5v-106.7c0-7.2-3.7-13.8-9.9-17.5z"/> <path d="m491.1,302.9l-89-53.4c-6.5-3.9-14.5-3.9-21,0l-89.1,53.4c-6.2,3.7-9.9,10.3-9.9,17.5v106.7c0,7.2 3.8,13.8 9.9,17.5l89,53.4c9.4,5.4 17.2,2.5 21,0l89-53.4c6.2-3.7 9.9-10.3 9.9-17.5v-106.7c0.1-7.2-3.7-13.8-9.8-17.5z"/> </g> </g> </g>

<g id="SVGRepo_iconCarrier"> <g> <g> <path d="m365.5,191.5v-106.7c0-7.2-3.8-13.8-9.9-17.5l-89-53.4c-6.5-3.9-14.5-3.9-21,0l-89.1,53.4c-6.2,3.7-9.9,10.3-9.9,17.5v106.7c0,7.2 3.8,13.8 9.9,17.5l89.1,53.4c9.4,5.4 17.2,2.5 21,0l89-53.4c6.1-3.7 9.9-10.3 9.9-17.5z"/> <path d="m220,303l-89-53.4c-6.5-3.9-14.5-3.9-21,0l-89.1,53.4c-6.2,3.7-9.9,10.3-9.9,17.5v106.7c0,7.2 3.8,13.8 9.9,17.5l89.1,53.4c9.4,5.4 17.2,2.5 21,0l89-53.4c6.2-3.7 9.9-10.3 9.9-17.5v-106.7c0-7.2-3.7-13.8-9.9-17.5z"/> <path d="m491.1,302.9l-89-53.4c-6.5-3.9-14.5-3.9-21,0l-89.1,53.4c-6.2,3.7-9.9,10.3-9.9,17.5v106.7c0,7.2 3.8,13.8 9.9,17.5l89,53.4c9.4,5.4 17.2,2.5 21,0l89-53.4c6.2-3.7 9.9-10.3 9.9-17.5v-106.7c0.1-7.2-3.7-13.8-9.8-17.5z"/> </g> </g> </g>

</svg>