<svg height="512" width="512" xmlns="http://www.w3.org/2000/svg"><g fill-rule="evenodd" transform="matrix(1.27565325 0 0 -1.27565325 -.000008 478.03446375)"><path d="m122.453 169.761 97.758-169.34-44.926-.422-26.101 45.496-26.286-45.25-22.32.008-11.433 19.75 37.449 64.394-26.582 46.258z" fill="#5277c3"/><path d="m157.738 239.515-97.777-169.332-22.828 38.699 26.351 45.347-52.332.137-11.152 19.336 11.391 19.777 74.488-.234 26.769 46.152z" fill="#7ebae4"/><path d="m165.238 104.155 195.532-.012-22.098-39.117-52.449.145 26.047-45.387-11.168-19.328-22.825-.027-37.039 64.629-53.355.109z" fill="#7ebae4"/><path d="m279.043 178.35-97.758 169.34 44.926.422 26.101-45.496 26.286 45.254 22.32-.008 11.434-19.754-37.45-64.39 26.582-46.262z" fill="#7ebae4"/><g fill="#5277c3"><path d="m122.453 169.761 97.758-169.34-44.926-.422-26.101 45.496-26.286-45.25-22.32.008-11.433 19.75 37.449 64.394-26.582 46.258z"/><path d="m236 244.386-195.535.011 22.101 39.118 52.45-.149-26.047 45.391 11.168 19.328 22.82.023 37.043-64.625 53.352-.109z"/><path d="m243.625 108.636 97.777 169.328 22.825-38.696-26.348-45.351 52.332-.137 11.152-19.336-11.39-19.777-74.489.238-26.769-46.152z"/></g></g></svg>